<svg height="24" viewBox="0 0 24 24" width="24" xmlns="http://www.w3.org/2000/svg"><path d="m0 0h24v24h-24z" fill="#fff" opacity="0"/><path d="m4.727 2.544a1.936 1.936 0 0 0 -1.981-1.85 1.921 1.921 0 0 0 -1.981 1.85v10.2a2.633 2.633 0 0 0 2.723 2.544 2.654 2.654 0 0 0 2.746-2.544v-9.485a.384.384 0 0 1 .765 0v9.482a3.4 3.4 0 0 1 -3.51 3.259 3.4 3.4 0 0 1 -3.489-3.259v-10.197a2.654 2.654 0 0 1 2.746-2.544 2.654 2.654 0 0 1 2.746 2.544v9.945a1.936 1.936 0 0 1 -1.981 1.85 1.921 1.921 0 0 1 -1.981-1.85v-9.461a.384.384 0 0 1 .765 0v9.461a1.186 1.186 0 0 0 1.215 1.135 1.173 1.173 0 0 0 1.215-1.135z" fill="#6d7278" stroke="#6d7278" stroke-width=".2" transform="translate(8.5 4.5)"/></svg>