<svg height="24" viewBox="0 0 24 24" width="24" xmlns="http://www.w3.org/2000/svg"><path d="m0 0h24v24h-24z" fill="#fff" opacity="0"/><g transform="translate(5 5)"><path d="m7.25 14.5a7.25 7.25 0 1 0 -7.25-7.25 7.25 7.25 0 0 0 7.25 7.25z" fill="none" stroke="#4c4c4c" stroke-miterlimit="10"/><path d="m.96 9.063a2.529 2.529 0 0 1 1.357-.876c.1-.035.2-.07.334-.113l.34-.111c1.024-.337 1.49-.615 1.67-1.261a.81.81 0 0 0 .039-.126 1.588 1.588 0 0 0 -.151-1.133 1.7 1.7 0 0 0 -.436-.512 2.064 2.064 0 0 1 -.764-1.676 2.1 2.1 0 0 1 2.1-2.15 2.122 2.122 0 0 1 2.1 2.15 2.05 2.05 0 0 1 -.8 1.692 1.576 1.576 0 0 0 -.449.586 1.694 1.694 0 0 0 -.105 1.03 1.365 1.365 0 0 0 .042.165c.206.657.686.937 1.752 1.284l.294.1c.113.037.2.067.288.1a2.518 2.518 0 0 1 1.352.846l.952-.615a3.528 3.528 0 0 0 -1.916-1.28c-.094-.033-.191-.065-.311-.1l-.293-.095c-.713-.232-.966-.38-1.025-.567a.378.378 0 0 1 -.01-.041.661.661 0 0 1 .033-.388.5.5 0 0 1 .147-.191 3.139 3.139 0 0 0 1.19-2.526 3.246 3.246 0 1 0 -6.491 0 3.155 3.155 0 0 0 1.152 2.5.673.673 0 0 1 .181.2.547.547 0 0 1 .045.383c0 .02-.007.029-.005.024-.057.194-.291.333-.95.55l-.338.11c-.141.046-.253.084-.363.123a3.55 3.55 0 0 0 -1.921 1.315z" fill="#4c4c4c" transform="translate(1.813 3.625)"/></g></svg>