<svg xmlns="http://www.w3.org/2000/svg" width="24.001" height="17.995" viewBox="0 0 24.001 17.995">
    <path d="M11.236 17.995h-.4c-.22 0-.373 0-.508-.007a7.8 7.8 0 0 1-1.2-.105 4.4 4.4 0 0 1-1.228-.408 4.112 4.112 0 0 1-1.037-.751c-.025-.023-.041-.041-.09-.092-.123-.12-.21-.2-.339-.335l-.344-.342-2.278-2.28c-.078-.073-.119-.112-.182-.175-.083-.08-.129-.126-.231-.229l-2.075-2.078-.091-.093-.1-.1c-.081-.081-.128-.129-.162-.167a6.851 6.851 0 0 1-.492-.542 1.847 1.847 0 0 1-.345-.522l-.022-.06a2.3 2.3 0 0 1 0-1.426l.022-.059A1.77 1.77 0 0 1 .478 7.7a6.84 6.84 0 0 1 .481-.531c.07-.074.121-.125.184-.188l.057-.052.131-.134L3.4 4.723l.067-.066.027-.027.03-.029.039-.04.037-.036c.056-.056.115-.113.192-.186L5.05 3.081l.016-.016 1-1 .019-.019c.142-.142.243-.243.34-.337s.193-.191.305-.3l.034-.037.077-.082A4.2 4.2 0 0 1 7.9.519 4.464 4.464 0 0 1 9.135.113a7.957 7.957 0 0 1 1.184-.1C10.485 0 10.643 0 10.83 0H18.73c.164 0 .319 0 .508.007a7.939 7.939 0 0 1 1.2.105A4.364 4.364 0 0 1 21.66.52a4.03 4.03 0 0 1 1.057.769 4.2 4.2 0 0 1 .768 1.057 4.416 4.416 0 0 1 .4 1.233 7.861 7.861 0 0 1 .1 1.181v.075a.245.245 0 0 0 0 .026v8.009c0 .153 0 .229-.006.317a7.949 7.949 0 0 1-.105 1.21 4.44 4.44 0 0 1-.409 1.241 4.162 4.162 0 0 1-.77 1.061 4.107 4.107 0 0 1-1.066.773 4.378 4.378 0 0 1-1.24.41 7.789 7.789 0 0 1-1.2.105c-.2 0-.357.007-.52.007zm-.4-16.659c-.165 0-.321 0-.493.006a6.777 6.777 0 0 0-.988.086 3.036 3.036 0 0 0-.851.282 2.777 2.777 0 0 0-.719.525l-.008.008-.007.007-.031.032-.006.007-.013.011c-.043.046-.055.059-.074.076-.1.091-.189.183-.279.272-.063.061-.124.122-.2.194l-.052.058-.083.083-2.3 2.3-.054.049-.137.134-.1.1-.1.094-2.058 2.067-.14.142-.077.076-.079.081v.006l-.074.076a5.575 5.575 0 0 0-.412.455l-.04.046a.49.49 0 0 0-.085.119.983.983 0 0 0 0 .54.463.463 0 0 0 .084.116l.044.05a5.51 5.51 0 0 0 .428.471c.042.046.092.1.151.155l.1.1.049.049.027.028.021.021 2.066 2.07c.1.1.14.14.2.194l.133.13.009.009.051.046 2.3 2.3.3.3.013.012.03.03c.118.118.194.193.272.266l.082.083.013.014.051.054a2.846 2.846 0 0 0 .713.519 3.055 3.055 0 0 0 .849.281 6.729 6.729 0 0 0 1 .087c.168 0 .319.006.487.007h7.844c.136 0 .271 0 .5-.007a6.687 6.687 0 0 0 1-.087 3.051 3.051 0 0 0 .86-.284 2.826 2.826 0 0 0 .724-.525 2.911 2.911 0 0 0 .526-.722 3.071 3.071 0 0 0 .283-.859 6.811 6.811 0 0 0 .088-1.017v-.044V12.791 5.19v-.23-.172a6.614 6.614 0 0 0-.086-.989 3.065 3.065 0 0 0-.278-.85 2.907 2.907 0 0 0-.524-.72 2.755 2.755 0 0 0-.714-.518 2.978 2.978 0 0 0-.844-.281 6.741 6.741 0 0 0-1-.087c-.13 0-.291-.006-.49-.007h-7.29c-.309-.003-.441-.002-.611 0zm6.377 11.192l-2.697-2.687-2.691 2.694-.01-.01a.582.582 0 0 1-.192.128.6.6 0 0 1-.652-.977.582.582 0 0 1 .105-.084L13.67 9l-2.7-2.7.008-.008a.6.6 0 0 1 .85-.844.6.6 0 0 1 .076.093l2.61 2.609 2.619-2.623a.6.6 0 0 1 1.09.34.6.6 0 0 1-.174.42l.007.007L15.359 9l2.609 2.6a.622.622 0 0 1 .092.076.6.6 0 0 1-.844.848z"/>
</svg>
