<svg height="12.5" viewBox="0 0 15.746 12.5" width="15.746" xmlns="http://www.w3.org/2000/svg"><g fill="#424f62" stroke="#424f62" stroke-width=".5"><path d="m14.739 46.67a1.639 1.639 0 0 0 -1.2-.507h-2.409v-.029a1.3 1.3 0 0 0 -.391-.942 1.326 1.326 0 0 0 -.939-.392h-4.351a1.336 1.336 0 0 0 -1.349 1.333v.029h-2.39a1.639 1.639 0 0 0 -1.2.507 1.723 1.723 0 0 0 -.51 1.203v7.218a1.639 1.639 0 0 0 .507 1.2 1.723 1.723 0 0 0 1.2.507h11.829a1.639 1.639 0 0 0 1.2-.507 1.723 1.723 0 0 0 .507-1.2v-7.218a1.639 1.639 0 0 0 -.504-1.202zm-.246 8.42h-.014a.94.94 0 0 1 -.942.942h-11.827a.94.94 0 0 1 -.942-.942v-7.218a.94.94 0 0 1 .942-.942h2.8a.39.39 0 0 0 .391-.391v-.42a.546.546 0 0 1 .565-.565h4.334a.546.546 0 0 1 .565.565v.42a.39.39 0 0 0 .391.391h2.8a.94.94 0 0 1 .942.942z" transform="translate(.25 -44.55)"/><path d="m115.565 130.8a3.563 3.563 0 1 0 2.522 1.043 3.572 3.572 0 0 0 -2.522-1.043zm1.971 5.551a2.8 2.8 0 0 1 -3.942 0 2.771 2.771 0 0 1 -.812-1.971 2.832 2.832 0 0 1 .812-1.971 2.771 2.771 0 0 1 1.971-.812 2.832 2.832 0 0 1 1.971.812 2.771 2.771 0 0 1 .812 1.971 2.712 2.712 0 0 1 -.812 1.971z" transform="translate(-107.692 -127.434)"/><circle cx="13.032" cy="4.061" r=".71"/></g></svg>