<svg xmlns="http://www.w3.org/2000/svg" width="32" height="32" viewBox="0 0 32 32">
    <g transform="translate(-289 -148)">
        <rect width="32" height="32" fill="#dbfbf8" rx="4" transform="translate(289 148)"/>
        <path fill="#424f62" stroke="#424f62" stroke-width="0.5px" d="M17.3 0a1.538 1.538 0 0 0-1.539 1.5 1.417 1.417 0 0 0 .375 1.013L13.1 6.229a1.469 1.469 0 0 0-1.689.188L9.194 4.5a1.683 1.683 0 0 0 .188-.713 1.5 1.5 0 1 0-3 0 1.353 1.353 0 0 0 .225.751L2.252 8.894a1.353 1.353 0 0 0-.752-.225A1.5 1.5 0 1 0 3 10.17a1.353 1.353 0 0 0-.225-.751L7.13 5.066a1.426 1.426 0 0 0 1.539 0L11 7.055a1.039 1.039 0 0 0-.113.488 1.5 1.5 0 1 0 3 0 1.477 1.477 0 0 0-.225-.788l3.115-3.79a1.108 1.108 0 0 0 .488.075 1.538 1.538 0 0 0 1.539-1.5A1.538 1.538 0 0 0 17.3 0M1.5 10.92a.751.751 0 1 1 .751-.751.753.753 0 0 1-.751.751m6.38-6.38a.751.751 0 1 1 .751-.751.753.753 0 0 1-.751.751m4.5 3.753a.751.751 0 1 1 .751-.751.753.753 0 0 1-.751.751m4.878-6a.751.751 0 1 1 .751-.751.753.753 0 0 1-.751.751" transform="translate(295.643 158.348)"/>
    </g>
</svg>
