<svg height="24" viewBox="0 0 24 24" width="24" xmlns="http://www.w3.org/2000/svg"><path d="m38.761 28.535a.587.587 0 0 0 0-.828l-.6-.6a.586.586 0 0 0 -.828 0l-3.983 3.983a.586.586 0 0 1 -.829 0l-3.986-3.99a.587.587 0 0 0 -.828 0l-.6.6a.586.586 0 0 0 0 .828l3.983 3.983a.586.586 0 0 1 0 .829l-3.99 3.99a.587.587 0 0 0 0 .828l.6.6a.586.586 0 0 0 .828 0l3.983-3.983a.586.586 0 0 1 .829 0l3.983 3.983a.587.587 0 0 0 .828 0l.6-.6a.586.586 0 0 0 0-.828l-3.983-3.983a.586.586 0 0 1 0-.829z" fill="#424f62" fill-rule="evenodd" transform="translate(-20.934 -20.933)"/></svg>