<svg height="24" viewBox="0 0 24 24" width="24" xmlns="http://www.w3.org/2000/svg"><path d="m0 0h24v24h-24z" fill="#fff" opacity="0"/><path d="m107.829 205a2.02 2.02 0 0 1 -2.019-2.019v-1.295a3.189 3.189 0 0 1 -2.41-3.089v-5.915a3.184 3.184 0 0 1 3.183-3.183h8.843a3.184 3.184 0 0 1 3.183 3.183v5.918a3.184 3.184 0 0 1 -3.183 3.183h-3.7a.466.466 0 0 0 -.39.21 9.6 9.6 0 0 1 -2.286 2.578 1.959 1.959 0 0 1 -1.221.429zm-1.246-13.954a1.638 1.638 0 0 0 -1.636 1.636v5.918a1.638 1.638 0 0 0 1.636 1.636.772.772 0 0 1 .773.773v1.974a.471.471 0 0 0 .469.469.435.435 0 0 0 .27-.1 8.065 8.065 0 0 0 1.918-2.169 2.011 2.011 0 0 1 1.711-.953h3.7a1.638 1.638 0 0 0 1.636-1.636v-5.915a1.638 1.638 0 0 0 -1.636-1.636z" fill="#6d7278" transform="translate(-99.4 -185.5)"/></svg>