<svg xmlns="http://www.w3.org/2000/svg" width="12" height="12" viewBox="0 0 12 12">
  <g id="Group_27478" data-name="Group 27478" transform="translate(12596 -355)">
    <rect id="Rectangle_13865" data-name="Rectangle 13865" width="12" height="12" rx="2" transform="translate(-12596 355)" fill="#dae6f3"/>
    <path id="Path_5405" data-name="Path 5405" d="M183.457,130.777a.433.433,0,0,1-.072.1l-2.131,2.53a.573.573,0,0,1-.345.146h-.946a.449.449,0,0,1-.442-.442v-1.3h-1.315a3.049,3.049,0,0,1-3.049-3.049v-.174a3.049,3.049,0,0,1,3.049-3.049h2.974a3.049,3.049,0,0,1,3.049,3.049v.174a3.024,3.024,0,0,1-.772,2.018Zm-.27-2.207a1.991,1.991,0,0,0-1.991-1.991h-3a1.991,1.991,0,0,0-1.991,1.991v.21a1.991,1.991,0,0,0,1.991,1.991h1.936a.434.434,0,0,1,.434.434v1.3h.078l2-2.375c.011-.011.023-.019.034-.028a1.979,1.979,0,0,0,.509-1.325v-.21Z" transform="translate(-12769.693 231.457)" fill="#424f62" fill-rule="evenodd"/>
  </g>
</svg>
