<svg height="9.851" viewBox="0 0 9.85 9.851" width="9.85" xmlns="http://www.w3.org/2000/svg"><path d="m36.641 28.248a.482.482 0 0 0 0-.68l-.495-.5a.481.481 0 0 0 -.68 0l-3.266 3.275a.481.481 0 0 1 -.68 0l-3.269-3.269a.482.482 0 0 0 -.68 0l-.5.495a.481.481 0 0 0 0 .68l3.269 3.269a.481.481 0 0 1 0 .68l-3.269 3.269a.482.482 0 0 0 0 .68l.495.495a.481.481 0 0 0 .68 0l3.269-3.269a.481.481 0 0 1 .68 0l3.269 3.269a.482.482 0 0 0 .68 0l.495-.495a.481.481 0 0 0 0-.68l-3.267-3.267a.481.481 0 0 1 0-.68z" fill="#424f62" fill-rule="evenodd" transform="translate(-26.936 -26.933)"/></svg>