<svg xmlns="http://www.w3.org/2000/svg" width="15.926" height="16.89" viewBox="0 0 15.926 16.89">
    <path fill="#424f62" stroke="#424f62" stroke-linecap="round" stroke-linejoin="round" stroke-width="0.5px" d="M17.5 3.964h-1.931V3h-.964v.964H8.821V3h-.965v.964H5.928A1.928 1.928 0 0 0 4 5.892v11.57a1.928 1.928 0 0 0 1.928 1.928H17.5a1.928 1.928 0 0 0 1.928-1.928V5.892A1.928 1.928 0 0 0 17.5 3.964zM4.964 5.892a.965.965 0 0 1 .964-.964h1.928v.964h.964v-.964h5.785v.964h.964v-.964H17.5a.965.965 0 0 1 .964.964v11.57a.965.965 0 0 1-.964.964H5.928a.965.965 0 0 1-.964-.964zm6.749 1.928a3.856 3.856 0 1 1-3.856 3.856 3.856 3.856 0 0 1 3.856-3.856m0-.964a4.821 4.821 0 1 0 4.821 4.821 4.821 4.821 0 0 0-4.821-4.821zm2.41 4.821v.964h-2.892V9.749h.964v1.928z" transform="translate(-3.75 -2.75)"/>
</svg>
