<svg height="17.19" viewBox="0 0 16.227 17.19" width="16.227" xmlns="http://www.w3.org/2000/svg"><g fill="#424f62" stroke="#424f62" stroke-linecap="round" stroke-linejoin="round" stroke-width=".8" transform="translate(20832.4 15755.401)"><path d="m17.5 3.964h-1.931v-.964h-.964v.964h-5.784v-.964h-.965v.964h-1.928a1.928 1.928 0 0 0 -1.928 1.928v11.57a1.928 1.928 0 0 0 1.928 1.928h11.572a1.928 1.928 0 0 0 1.928-1.928v-11.57a1.928 1.928 0 0 0 -1.928-1.928zm-12.536 1.928a.965.965 0 0 1 .964-.964h1.928v.964h.964v-.964h5.785v.964h.964v-.964h1.931a.965.965 0 0 1 .964.964v11.57a.965.965 0 0 1 -.964.964h-11.572a.965.965 0 0 1 -.964-.964z" transform="translate(-20836 -15758)"/><g transform="translate(-20829 -15750)"><path d="m0 0h4v4h-4z"/><path d="m.4.4h3.2v3.2h-3.2z" fill="none"/></g></g></svg>