<svg height="32" viewBox="0 0 32 32" width="32" xmlns="http://www.w3.org/2000/svg"><rect fill="#424f62" height="32" rx="4" width="32"/><path d="m35.945 30.4v7.366a.283.283 0 1 1 -.567 0v-7.366a.283.283 0 1 1 .567 0zm2.267 7.366v-7.366a.283.283 0 1 0 -.567 0v7.366a.283.283 0 1 0 .567 0zm-5.1-7.366v7.366a.283.283 0 1 0 .567 0v-7.366a.283.283 0 1 0 -.567 0zm7.933-1.7h-.567v9.916a1.4 1.4 0 0 1 -1.417 1.417h-6.8a1.4 1.4 0 0 1 -1.417-1.417v-9.916h-.567a.283.283 0 1 1 0-.567h3.123v-.567a.568.568 0 0 1 .562-.566h3.4a.568.568 0 0 1 .567.567v.567h3.116a.283.283 0 1 1 0 .566zm-7.083-.567h3.4v-.567h-3.4zm5.95.567h-8.5v9.916a.835.835 0 0 0 .85.85h6.8a.835.835 0 0 0 .85-.85z" fill="#fff" stroke="#fff" stroke-width=".4" transform="translate(-19.494 -17.5)"/></svg>