<svg xmlns="http://www.w3.org/2000/svg" width="24" height="24" viewBox="0 0 24 24">
  <g id="Group_26654"  transform="translate(-430 -537)">
    <rect id="Rectangle_13215"  width="24" height="24" transform="translate(430 537)" fill="rgba(162,162,160,0.5)" opacity="0"/>
    <path id="Path_4695" d="M90.769,57.924a1.281,1.281,0,1,0-1.281-1.282,1.282,1.282,0,0,0,1.281,1.282M103.2,63.168a1.281,1.281,0,1,0-1.281-1.282,1.282,1.282,0,0,0,1.281,1.282m0-10.488a1.281,1.281,0,1,0-1.281-1.281A1.281,1.281,0,0,0,103.2,52.68M90.769,54.467a2.175,2.175,0,0,1,1.919,1.149c.581,0,1.36,0,1.73,0a1.571,1.571,0,0,0,1.565-1.539A3.722,3.722,0,0,1,99,50.4a4.683,4.683,0,0,1,.733-.059c.524-.007,1.047,0,1.571,0a2.176,2.176,0,1,1,0,2.123c-.558,0-1.115,0-1.673,0a1.473,1.473,0,0,0-.424.072,1.576,1.576,0,0,0-1.086,1.486,3.527,3.527,0,0,1-.83,2.324c-.089.1-.185.2-.277.3.01.012.016.02.023.028a3.482,3.482,0,0,1,1.074,2.407,3.464,3.464,0,0,0,.046.562,1.564,1.564,0,0,0,1.524,1.219c.533,0,1.065,0,1.6,0a2.176,2.176,0,1,1,.035,2.1c-.555,0-1.111,0-1.666,0a4.1,4.1,0,0,1-.582-.048,3.569,3.569,0,0,1-2.1-1.145A3.446,3.446,0,0,1,96,59.553c-.01-.185-.012-.371-.039-.553a1.587,1.587,0,0,0-1.482-1.284c-.394,0-1.213,0-1.815,0a2.176,2.176,0,1,1-1.893-3.247" transform="translate(344.902 492.256)" fill="#6d7278" fill-rule="evenodd"/>
  </g>
</svg>