<svg xmlns="http://www.w3.org/2000/svg" width="12" height="12" viewBox="0 0 12 12">
  <g id="Group_27479" data-name="Group 27479" transform="translate(13242 -7)">
    <rect id="Rectangle_13865" data-name="Rectangle 13865" width="12" height="12" rx="2" transform="translate(-13242 7)" fill="#dae6f3"/>
    <path id="noun-paragraph-align-left-2949518" d="M163.832,119.638h2.97a.5.5,0,0,0,0-.99h-2.97a.5.5,0,0,0,0,.99Zm2.97,2.97h-2.97a.495.495,0,1,0,0,.99h2.97a.495.495,0,1,0,0-.99Zm1.98-1.98h-4.95a.5.5,0,0,0,0,.99h4.95a.5.5,0,0,0,0-.99Zm1.98-3.96h-6.93a.495.495,0,1,0,0,.99h6.93a.495.495,0,1,0,0-.99Z" transform="translate(-13403.297 -107.133)" fill="#424f62"/>
  </g>
</svg>
