<svg height="13.838" viewBox="0 0 3.955 13.838" width="3.955" xmlns="http://www.w3.org/2000/svg"><g fill="#eb5757"><path d="m47.7 36.64c-.063.473-.126 1.008-.189 1.512-.095.725-.189 1.418-.284 2.142l-.284 2.142-.189 1.418a1.163 1.163 0 0 1 -.662.977.9.9 0 0 1 -1.2-.473 4.319 4.319 0 0 1 -.252-1.1c-.126-.851-.221-1.67-.347-2.521-.095-.819-.221-1.638-.315-2.426-.063-.473-.095-.914-.189-1.386a1.818 1.818 0 0 1 .977-1.985 1.988 1.988 0 0 1 2.9 1.355 1.078 1.078 0 0 1 .034.345z" transform="translate(-43.746 -34.681)"/><path d="m47.084 69.7a1.4 1.4 0 1 1 -1.384 1.384 1.339 1.339 0 0 1 1.384-1.384z" transform="translate(-45.084 -58.664)"/></g></svg>