<svg height="26" viewBox="0 0 26 26" width="26" xmlns="http://www.w3.org/2000/svg"><g fill="#424f62"><path d="m21.158 14.423a.27.27 0 0 0 0-.375l-1.143-1.212a.249.249 0 0 0 -.185-.081.249.249 0 0 0 -.185.081l-3.839 3.989 1.524 1.564z" transform="translate(-4.265 -4.057)"/><path d="m8.354 17.778a.252.252 0 0 0 -.369 0l-1.16 1.195a.272.272 0 0 0 0 .381l3.648 3.752a1.124 1.124 0 0 0 .762.381 1.2 1.2 0 0 0 .756-.369l.009-.005.774-.8z" transform="translate(-2.644 -4.942)"/><path d="m26.114 12.543-1.143-1.212a.249.249 0 0 0 -.185-.081.249.249 0 0 0 -.185.081l-7.955 8.238-2.892-2.979a.252.252 0 0 0 -.369 0l-1.16 1.195a.272.272 0 0 0 0 .381l3.648 3.752a1.124 1.124 0 0 0 .762.381 1.2 1.2 0 0 0 .756-.369l.006-.006 8.717-9.011a.269.269 0 0 0 0-.37z" transform="translate(-3.61 -3.788)"/></g></svg>