<svg xmlns="http://www.w3.org/2000/svg" width="79.937" height="80">
    <path data-name="Path 1317" d="M1716.985 353.987a40.128 40.128 0 0 1-29.22 38.515 38.9 38.9 0 0 1-10.687 1.47 1.961 1.961 0 1 1 0-3.908 36.118 36.118 0 0 0 34.552-26.165 35.113 35.113 0 0 0 1.172-13.928 36.136 36.136 0 0 0-26.26-30.853 34.383 34.383 0 0 0-9.134-1.287 2.34 2.34 0 0 1-1.93-.651 1.805 1.805 0 0 1-.384-1.959 1.691 1.691 0 0 1 1.55-1.247 41.543 41.543 0 0 1 4.218.144 37.524 37.524 0 0 1 12.968 3.562 39.783 39.783 0 0 1 22.156 27.452 39.352 39.352 0 0 1 .999 8.855zm-62.5 28.822a1.984 1.984 0 1 0 2.011 1.991 2.018 2.018 0 0 0-2.016-1.992zm.044-61.6a1.974 1.974 0 0 0-2 1.975 1.979 1.979 0 0 0 3.958-.014 1.966 1.966 0 0 0-1.963-1.97zm-6 9.238a1.953 1.953 0 1 0-1.9-1.995 1.917 1.917 0 0 0 1.899 1.991zm-4.62 44.538a1.952 1.952 0 1 0 .033-3.9 1.885 1.885 0 0 0-1.965 1.922 1.948 1.948 0 0 0 1.931 1.974zm4.722 2.507a1.949 1.949 0 0 0-1.971 1.943 1.907 1.907 0 0 0 1.931 1.966 1.955 1.955 0 0 0 .041-3.909zm-7.971-37.25a1.973 1.973 0 0 0-.016 3.945 1.973 1.973 0 0 0 .016-3.945zm20.688-19.115a1.957 1.957 0 1 0 .066-3.913 1.925 1.925 0 0 0-1.98 1.918 1.944 1.944 0 0 0 1.913 1.991zm.073 65.683a1.95 1.95 0 1 0 .016 3.9 1.95 1.95 0 0 0-.016-3.9zm5.62 4.393a1.949 1.949 0 1 0 3.9.056 1.949 1.949 0 0 0-3.9-.056zm3.875-74.493a1.993 1.993 0 0 0-1.966-1.966 1.952 1.952 0 1 0 0 3.9 1.933 1.933 0 0 0 1.964-1.938zm-29.941 33.285a1.96 1.96 0 1 0-3.92 0 1.949 1.949 0 0 0 1.9 1.958 1.981 1.981 0 0 0 2.018-1.962zm-.3 17.708a1.964 1.964 0 0 0 .014-3.927 1.928 1.928 0 0 0-1.952 1.947 1.966 1.966 0 0 0 1.935 1.977zm3.21-34.751a1.967 1.967 0 1 0 1.951 1.969 1.957 1.957 0 0 0-1.954-1.973zm-6.835 25.01a1.962 1.962 0 0 0 3.925.012 1.963 1.963 0 0 0-3.925-.012z" transform="translate(-1637.047 -313.972)" style="fill:#424f62"/>
</svg>
