<svg xmlns="http://www.w3.org/2000/svg" width="25.391" height="25.877">
    <path data-name="Path 1316" d="M1464.764 463.217h-2.843a.555.555 0 0 1-.588-.442.545.545 0 0 1 .314-.639.918.918 0 0 1 .338-.062c1.868 0 3.737-.006 5.6 0 .472 0 .758.349.637.735a.587.587 0 0 1-.623.407q-1.413.006-2.835.001zm-4.879-10.01a.528.528 0 0 1-.117.051 3.063 3.063 0 0 0-2.51 3.015v15.585a2.947 2.947 0 0 0 .081.688 3.056 3.056 0 0 0 3.081 2.361h6.948a.4.4 0 0 1 .388.206 8.472 8.472 0 0 0 .586.8 7.87 7.87 0 0 0 13.783-6.408 7.7 7.7 0 0 0-5.1-6.057c-.337-.132-.691-.215-1.046-.325V460.106a1 1 0 0 0-.3-.742q-2.633-2.751-5.258-5.512c-.213-.224-.446-.428-.672-.643zm7.234 14.542c-.041.068-.2.1-.3.1-1.556.006-3.112 0-4.667 0a2.061 2.061 0 0 0-.373.032.544.544 0 0 0-.464.54.556.556 0 0 0 .44.562 1.421 1.421 0 0 0 .32.024h4.624a8.027 8.027 0 0 0-.191 2.393 7.817 7.817 0 0 0 .533 2.331c-.116 0-.194.012-.272.012h-6.3a1.87 1.87 0 0 1-1.85-1.081 2.361 2.361 0 0 1-.2-.982c-.012-5.731-.011-9.508-.008-15.238a1.912 1.912 0 0 1 1.455-2.02 2.5 2.5 0 0 1 .636-.069h8.208c.087 0 .174.009.287.015v.338c.006 1.162-.012 2.324.026 3.486a2.433 2.433 0 0 0 2.209 2.246c1.079.05 2.161.035 3.243.048h.335v2.489a8.413 8.413 0 0 0-2.294.224 7.87 7.87 0 0 0-3.135 1.562.754.754 0 0 1-.51.176q-3.42-.009-6.84 0c-.431 0-.679.189-.708.531a.54.54 0 0 0 .428.591 1.863 1.863 0 0 0 .4.039h5.88c-.317.578-.604 1.12-.912 1.651zm.535 3.08a6.718 6.718 0 1 1 6.71 6.75 6.711 6.711 0 0 1-6.71-6.75zm3.788-11.509a1.268 1.268 0 0 1-1.253-1.139c-.053-.957-.014-1.918-.014-2.919l3.86 4.063c-.914-.001-1.755.014-2.593-.005zm3.517 13.555v-5.6a2.27 2.27 0 0 0-.006-.268.605.605 0 0 0-.556-.556.59.59 0 0 0-.583.52 1.753 1.753 0 0 0-.018.32V473.172l-.089.057a1.424 1.424 0 0 0-.141-.218q-.985-1.062-1.977-2.116a1.605 1.605 0 0 0-.278-.248.556.556 0 0 0-.774.174c-.162.25-.108.523.162.815l3.107 3.337c.415.446.7.446 1.12 0q1.154-1.236 2.3-2.472c.3-.32.606-.633.89-.966a.562.562 0 0 0-.188-.93.621.621 0 0 0-.715.224q-.845.918-1.694 1.831c-.168.18-.34.359-.562.6z" transform="translate(-1457.081 -453.032)" style="fill:#424f62;stroke:#424f62;stroke-width:.35px"/>
</svg>
