<svg height="24" viewBox="0 0 24 24" width="24" xmlns="http://www.w3.org/2000/svg"><path d="m0 0h24v24h-24z" fill="#fff" opacity="0"/><g fill="#424f62" stroke="#424f62" stroke-width=".6"><path d="m380.811 102.123-.582.582-1.4 1.4-1.683 1.683-1.455 1.455c-.236.236-.483.465-.71.71l-.01.01.205-.086-1.3.01h-.186l.291.291c0-.435.007-.87.01-1.3 0-.063 0-.124 0-.186-.029.068-.057.137-.086.205l.228-.228.607-.607.873-.873 1.009-1.01 1.033-1.033.937-.937.726-.726.388-.388.031-.031c.033-.035-.006.009-.01.006l.026-.016c.028-.017-.02.013-.023.01a.282.282 0 0 0 .029-.007c.031-.01-.026.007-.028 0a.194.194 0 0 0 .029 0c.038 0-.055-.01-.019 0s-.026-.012-.023-.013.029.023.035.019-.044-.041-.01-.006l.007.007c.015.013.028.028.041.041l.172.172c.276.276.557.551.831.831 0 0 0 .006.007.007.019.019.016.023 0 0-.02-.036 0 0 0 0 .006.022 0 .019 0 0l-.007-.016a.092.092 0 0 0 .006.019c0 .006.012.047 0 0s0 .061 0 0c0-.044 0-.007 0 0a.021.021 0 0 0 0 .01c-.006.015 0 .013 0-.007s.006-.012 0 0c.01 0 .045-.039.01 0a.291.291 0 0 0 .412.412.6.6 0 0 0 0-.832c-.035-.038-.073-.073-.111-.111l-.551-.551c-.131-.131-.26-.266-.394-.394a.6.6 0 0 0 -.85.015c-.145.144-.289.289-.433.433l-.884.884-1.149 1.149-1.218 1.218-1.089 1.09-.777.777-.209.209a.384.384 0 0 0 -.145.272c-.01.188 0 .378 0 .567 0 .26 0 .519-.006.78v.138a.3.3 0 0 0 .291.291l1.056-.009h.428a.354.354 0 0 0 .25-.122l1.066-1.066 1.9-1.9 1.862-1.862c.32-.32.646-.634.96-.96l.013-.013a.292.292 0 0 0 -.412-.415z" transform="translate(-363.413 -94.465)"/><path d="m699.076 101.95-1.011 1.011-.141.141h.412l-1.295-1.295-.183-.183v.412l1.062-1.062.074-.074.015-.015c0-.006.017-.015.017-.016l-.013.01q-.028.02 0 0l.017-.009c-.039.016-.042.019-.013.009.045-.017-.019.02-.019 0a.328.328 0 0 1 .039 0c-.012 0-.064-.016-.019 0-.01 0-.06-.016-.015-.006s-.012.007-.009-.01c0 .02.01.009.016.015l.061.061.621.621.313.313c.02.02.039.041.06.06s0-.009-.006-.01.019.035.019.035l-.015-.032a.189.189 0 0 1 .009.039c.017-.012-.032-.063-.006-.017v.02c.006-.041.007-.051 0-.028s-.026.064 0 0c-.02.047.039-.041 0 0a.291.291 0 0 0 .412.412.6.6 0 0 0 -.009-.842c-.071-.073-.144-.144-.215-.215l-.7-.7a2.18 2.18 0 0 0 -.2-.188.6.6 0 0 0 -.784.067c-.191.188-.378.378-.567.567l-.572.572a.3.3 0 0 0 0 .412l1.295 1.295.183.183a.3.3 0 0 0 .412 0l1.011-1.011.141-.141a.292.292 0 0 0 -.412-.413z" transform="translate(-681.679 -94.293)"/><path d="m112.093 106.678v5.822.061s0 .013 0 .02c0 .032 0 .026 0-.017a.271.271 0 0 1 -.007.039c-.007.032-.016.064-.026.095 0 .013-.009.061-.006.02.01-.023.01-.022 0 0l-.017.035a.828.828 0 0 1 -.049.083.2.2 0 0 1 -.022.032l.022-.029a.237.237 0 0 1 -.025.029c-.02.023-.044.047-.067.068s-.019.016-.029.025c-.042.038.052-.032-.01.006-.025.015-.048.032-.073.045l-.051.026c-.051.025.016-.007.016-.007s-.08.026-.093.031l-.058.013c-.065.016.065 0 0 0-.252.015-.5 0-.756 0h-8.2c-.257 0-.515 0-.771 0h-.042a.2.2 0 0 1 -.06 0s.076.015.019 0c-.038-.009-.076-.017-.113-.029 0 0-.036-.012-.036-.013l.033.015-.035-.016c-.029-.015-.057-.031-.083-.047l-.032-.022c-.055-.035.047.044 0 0a.9.9 0 0 1 -.076-.073l-.032-.036c-.042-.047.023.041 0 .006s-.036-.054-.051-.08-.016-.028-.022-.042-.012-.055-.009-.017 0-.007-.006-.02-.012-.038-.016-.057l-.013-.058c-.01-.044 0 .013 0 .019-.013-.012-.006-.081-.006-.1v-9.665c0-.02 0-.041 0-.061 0-.06-.015.06 0 0 .007-.032.015-.064.023-.095s.012-.031.016-.047c.012-.039-.032.064 0 .007.015-.029.029-.057.045-.084.007-.01.013-.022.02-.032l.022-.032c-.026.033-.029.038-.01.015s.042-.048.065-.07l.028-.026.015-.013c.025-.02.019-.016-.015.01a.522.522 0 0 1 .166-.1l-.033.015.036-.013.038-.012a.707.707 0 0 0 .1-.022h-.038.039 5.884a.291.291 0 0 0 0-.582h-5.811a1.171 1.171 0 0 0 -1.146.922 2.1 2.1 0 0 0 -.025.393v8.747.74a1.175 1.175 0 0 0 1.159 1.159h9.5a1.693 1.693 0 0 0 .436-.038 1.176 1.176 0 0 0 .864-1.139c0-.439 0-.877 0-1.316v-4.49a.29.29 0 1 0 -.58 0z" transform="translate(-94.692 -95.671)"/></g></svg>