<svg height="24" viewBox="0 0 24 24" width="24" xmlns="http://www.w3.org/2000/svg"><path d="m15.469 16.142h-14.797a.612.612 0 0 1 -.672-.617v-4.936a.612.612 0 0 1 .672-.617h1.346v-4.318a.612.612 0 0 1 .672-.617h2.69a.613.613 0 0 1 .673.617v4.318h2.018v-3.702a.613.613 0 0 1 -.671-.616v-1.854a.613.613 0 0 1 .673-.617h5.38a.612.612 0 0 1 .672.617v1.854a.612.612 0 0 1 -.672.617v3.7h2.018a.612.612 0 0 1 .672.617v4.936a.612.612 0 0 1 -.674.618zm-2.018-4.936v3.7h1.349v-3.7zm-4.035-4.936v8.637h2.691v-8.637zm-6.053 6.17a.619.619 0 1 0 0 1.234h2.69a.619.619 0 1 0 0-1.234zm0-6.169v3.7h1.345v-3.701zm.259-2.022a1 1 0 0 1 -1.061-1.063 3.129 3.129 0 0 1 3.186-3.186h3.185a1 1 0 0 1 1.063 1.062 1 1 0 0 1 -1.063 1.062h-3.185a1 1 0 0 0 -1.062 1.062 1 1 0 0 1 -1.062 1.062z" fill="#2d2d2d" transform="translate(4 4)"/></svg>