<svg xmlns="http://www.w3.org/2000/svg" width="16.15" height="16.15" viewBox="0 0 16.15 16.15">
    <g>
        <g>
            <path fill="#4c4c4c" fill-rule="evenodd" d="M15.141 2.927a1.47 1.47 0 0 0 1.009-1.413 1.516 1.516 0 0 0-3.028-.1L9.135 2.473a1.54 1.54 0 0 0-2.523.656l-3.533.959a2.824 2.824 0 0 1 .252-1.262.467.467 0 0 0-.2-.606L1.363 1.161a.5.5 0 0 0-.707.2A5.72 5.72 0 0 0 .2 5.451a6.109 6.109 0 0 0 2.273 3.432.514.514 0 0 0 .757-.151l1.06-1.717a.479.479 0 0 0-.1-.656A2.7 2.7 0 0 1 3.331 5.1l3.432-.908-3.079 10.444H0v1.514h16.15v-1.514h-1.009zm-4.542 11l-1.817-1.814L9.791 11.1zM9.034 8.58H7.116l.959-3.331zm.3 1.009l.1.454-1.359 1.363-1.413-1.413.1-.4zM6.359 11.1l1.009 1.009-1.816 1.821zm1.716 1.716l1.817 1.817H6.258zm1.363-8.58a1.631 1.631 0 0 0 .151-.808l3.836-1.009a1.816 1.816 0 0 0 .707.555v11.662h-1.666z"/>
        </g>
    </g>
</svg>
