<svg xmlns="http://www.w3.org/2000/svg" width="24" height="24" viewBox="0 0 24 24">
  <g id="expand" transform="translate(-70 -441)">
    <rect id="Rectangle_1920" data-name="Rectangle 1920" width="24" height="24" transform="translate(70 441)" fill="rgba(162,162,160,0.5)" opacity="0"/>
    <g id="Group_6325" data-name="Group 6325" transform="translate(65.801 436.9)">
      <path id="Path_1760" data-name="Path 1760" d="M48.515,9.537c0-.017-.017-.035-.017-.052s-.017-.035-.017-.052-.017-.035-.035-.052c0-.017-.017-.017-.017-.035a.532.532,0,0,0-.14-.14c-.017,0-.017-.017-.035-.017-.017-.017-.035-.017-.052-.035-.017,0-.035-.017-.052-.017s-.035-.017-.052-.017c-.035,0-.07-.017-.1-.017H44.214a.525.525,0,1,0,0,1.049h2.535l-6.592,6.609a.507.507,0,0,0,0,.734.507.507,0,0,0,.734,0L47.483,10.9v2.535a.525.525,0,0,0,1.049,0V9.642A.222.222,0,0,0,48.515,9.537Z" transform="translate(-25.415)" fill="#424f62" stroke="#424f62" stroke-width="0.3"/>
      <path id="Path_1761" data-name="Path 1761" d="M20.81,24.138a.515.515,0,0,0-.525.525v5.822H10.249V20.449h5.822a.525.525,0,1,0,0-1.049H9.725a.515.515,0,0,0-.525.525V31.01a.515.515,0,0,0,.525.525H20.81a.515.515,0,0,0,.525-.525V24.663A.515.515,0,0,0,20.81,24.138Z" transform="translate(0 -8.499)" fill="#424f62" stroke="#424f62" stroke-width="0.3"/>
    </g>
  </g>
</svg>
