<svg height="24" viewBox="0 0 24 24" width="24" xmlns="http://www.w3.org/2000/svg"><path d="m264.392 190.506a3.838 3.838 0 1 1 -3.838-3.838 3.838 3.838 0 0 1 3.838 3.838zm-1.1 0a2.735 2.735 0 1 1 -2.735-2.735 2.735 2.735 0 0 1 2.732 2.735z" fill="#fff" fill-rule="evenodd" transform="translate(-248.572 -178.629)"/><path d="m139.462 137.08a10.2 10.2 0 0 0 -8.713 4.8 1.99 1.99 0 0 0 0 2.159 10.311 10.311 0 0 0 17.427 0 1.99 1.99 0 0 0 0-2.159 10.2 10.2 0 0 0 -8.714-4.8zm-7.7 5.444a9.111 9.111 0 0 1 15.405 0 .791.791 0 0 1 0 .867 9.111 9.111 0 0 1 -15.405 0 .79.79 0 0 1 -.003-.867z" fill="#424f62" fill-rule="evenodd" transform="translate(-127.477 -131.08)"/><path d="m85.237 11.2a4.037 4.037 0 1 0 4.037 4.037 4.038 4.038 0 0 0 -4.037-4.037zm2.077 3.061-2.372 2.38a.428.428 0 0 1 -.294.126.4.4 0 0 1 -.294-.126l-1.194-1.195a.422.422 0 1 1 .6-.6l.892.892 2.077-2.077a.416.416 0 0 1 .6 0 .424.424 0 0 1 -.008.6z" fill="#424f62" transform="translate(-73.254 -3.358)"/><path d="m0 0 11 11" fill="none" opacity=".723" stroke="#424f62" stroke-linecap="round" stroke-width="2" transform="translate(6.5 6.5)"/></svg>