<svg height="25.729" viewBox="0 0 27.816 25.729" width="27.816" xmlns="http://www.w3.org/2000/svg" xmlns:xlink="http://www.w3.org/1999/xlink"><clipPath id="a"><path d="m0 0h27.816v25.729h-27.816z"/></clipPath><g clip-path="url(#a)"><path d="m27.817 13.557a1.374 1.374 0 0 1 -.3.244.5.5 0 0 1 -.732-.486 11.672 11.672 0 0 0 -.978-4.662 12.425 12.425 0 0 0 -9.039-7.337 12.949 12.949 0 0 0 -14.424 6.629 11.672 11.672 0 0 0 -1.266 6.233 11.542 11.542 0 0 0 .709 3.322.528.528 0 0 1 -.142.661.457.457 0 0 1 -.76-.188 12.628 12.628 0 0 1 -.863-5.31 12.762 12.762 0 0 1 2.951-7.546 13.825 13.825 0 0 1 8.327-4.882c.477-.091.966-.123 1.449-.185.079-.01.157-.033.235-.05h1.847c.258.034.515.072.773.1a13.726 13.726 0 0 1 6.778 2.671 13.058 13.058 0 0 1 5.278 8.614c.058.357.1.717.153 1.075zm-11.676-9.9a9.055 9.055 0 0 1 5.308 2.757 9.917 9.917 0 0 1 2.4 4.5c.341 1.408.561 2.843.827 4.268.088.473.3.7.639.654.361-.053.5-.342.417-.819q-.159-.871-.3-1.744a18.293 18.293 0 0 0 -1.081-4.178 10.444 10.444 0 0 0 -3.781-4.756 11.03 11.03 0 0 0 -5.121-1.789 11.94 11.94 0 0 0 -5.034.458 11.067 11.067 0 0 0 -6.924 6.092 9.384 9.384 0 0 0 -.871 4.874c.082.852.25 1.7.414 2.542a3.718 3.718 0 0 1 -.819 3.4.663.663 0 0 0 -.079.105.473.473 0 0 0 .113.634.536.536 0 0 0 .73-.064 5.077 5.077 0 0 0 1.1-2.15 6.269 6.269 0 0 0 -.147-2.841 9.453 9.453 0 0 1 -.113-4.208 10.322 10.322 0 0 1 10.169-7.964c.718.073 1.443.109 2.153.227m-7.399 2.875a7.939 7.939 0 0 0 -3.609 6.615 35.34 35.34 0 0 0 .33 3.676 6.8 6.8 0 0 1 -.263 2.805 5.651 5.651 0 0 1 -1.463 2.253.455.455 0 0 0 -.021.714.563.563 0 0 0 .8-.03 12.462 12.462 0 0 0 1.173-1.49 7.236 7.236 0 0 0 .81-4.717c-.1-.915-.256-1.827-.287-2.744a7.018 7.018 0 0 1 2.688-5.892 7.5 7.5 0 0 1 5.777-1.72 15.305 15.305 0 0 1 2.1.479c.375.1.678-.056.722-.4.035-.273-.076-.44-.379-.553a8.588 8.588 0 0 0 -2.8-.577 9.094 9.094 0 0 0 -5.578 1.581m7.792 10.145a.58.58 0 0 0 .475.681.558.558 0 0 0 .574-.6c.031-.763.069-1.528.054-2.291a5.9 5.9 0 0 0 -.582-2.573 3.483 3.483 0 0 0 -3.6-1.985 3.536 3.536 0 0 0 -3.042 2.571 6.505 6.505 0 0 0 -.011 2.253c.082 1.116.213 2.23.253 3.347a11.434 11.434 0 0 1 -.722 4.629 19.688 19.688 0 0 1 -1.091 2.143c-.206.38-.109.712.29.832q.365.11.648-.307a11.727 11.727 0 0 0 1.9-5.87 27.014 27.014 0 0 0 -.241-5.014 5.925 5.925 0 0 1 -.009-1.707 2.262 2.262 0 0 1 1.829-1.824 2.232 2.232 0 0 1 2.431.745 4.186 4.186 0 0 1 .659 1.238 8.273 8.273 0 0 1 .251 2.557l-.061 1.17m-7.417-5.101a5.251 5.251 0 0 1 8.372-1.769 5.367 5.367 0 0 1 1.2 1.749.526.526 0 0 0 .705.3.515.515 0 0 0 .257-.7 6.16 6.16 0 0 0 -6.419-3.7 6.036 6.036 0 0 0 -5.5 5.813c0 .9.1 1.8.121 2.707q.043 1.822.029 3.644a6.9 6.9 0 0 1 -.155 1 .454.454 0 0 0 .22.519.6.6 0 0 0 .475.006.692.692 0 0 0 .311-.42 9.7 9.7 0 0 0 .222-1.752c-.012-1.693-.083-3.386-.13-5.078a4.355 4.355 0 0 1 .3-2.323m13.739 2.035a13.071 13.071 0 0 0 -1.407-4.563 7.239 7.239 0 0 0 -2.046-2.5.572.572 0 0 0 -.8.063.518.518 0 0 0 .153.736 6.229 6.229 0 0 1 .52.456 8.81 8.81 0 0 1 2.011 3.59 14.534 14.534 0 0 1 .7 4.094c.027 1.335.019 2.674-.054 4.007-.057 1.037-.237 2.068-.365 3.1a.5.5 0 0 0 .376.605.568.568 0 0 0 .656-.414c.031-.117.038-.24.057-.36a47.071 47.071 0 0 0 .516-5.32c-.1-1.166-.175-2.337-.32-3.5m-2.2 3.5c-.1-1.009-.181-2.02-.31-3.026a3.089 3.089 0 0 0 -.331-.954.5.5 0 0 0 -.716-.195.487.487 0 0 0 -.187.678 2.38 2.38 0 0 1 .213.639c.09.7.182 1.4.215 2.1a25.641 25.641 0 0 1 -.516 5.745c-.15.836-.329 1.668-.495 2.5a.439.439 0 0 0 .2.525.742.742 0 0 0 .551.039.7.7 0 0 0 .31-.445c.211-1.01.413-2.024.582-3.041a25.55 25.55 0 0 0 .422-4.557zm-6.16-4.214a.615.615 0 0 0 -.673-.5c-.341.074-.45.333-.383.735a26.4 26.4 0 0 1 .39 2.7 21.628 21.628 0 0 1 -.4 5.359.54.54 0 0 0 .4.622.519.519 0 0 0 .649-.437 27.153 27.153 0 0 0 .445-4.213 16.643 16.643 0 0 0 -.429-4.26m3 6.344a.523.523 0 0 0 -1.037.129 16.964 16.964 0 0 1 -.5 3.889c-.143.607-.319 1.207-.477 1.812a.511.511 0 0 0 .31.641.468.468 0 0 0 .652-.368 21.071 21.071 0 0 0 1.051-5.6c0-.107.014-.307 0-.505m7.212.035a.471.471 0 0 0 .515.508.461.461 0 0 0 .513-.506c.006-.65 0-1.3 0-1.951a.514.514 0 1 0 -1.029 0c-.006.321 0 .642 0 .962v.988m-17.416 3.2c-.35.472-.681.958-1.007 1.447a.461.461 0 0 0 .112.688.533.533 0 0 0 .796-.119c.345-.476.684-.957 1-1.45.239-.371-.024-.774-.509-.812a1.356 1.356 0 0 0 -.38.249m6.056 2.647c.162-.585.321-1.17.484-1.754a.448.448 0 0 0 -.313-.612.522.522 0 0 0 -.657.347c-.18.625-.355 1.251-.515 1.881a.468.468 0 0 0 .45.58.53.53 0 0 0 .551-.442" fill="#424f62" transform="translate(-.001)"/></g></svg>