<svg height="24" viewBox="0 0 24 24" width="24" xmlns="http://www.w3.org/2000/svg"><path d="m0 0h24v24h-24z" fill="#fff" opacity="0"/><g fill="#6d7278"><path d="m25.226 26.107h-8.232a1.906 1.906 0 0 1 -1.894-1.894v-12.019a1.906 1.906 0 0 1 1.894-1.894h8.212a1.906 1.906 0 0 1 1.894 1.894v12.02a1.863 1.863 0 0 1 -1.874 1.893zm-8.232-14.807a.893.893 0 0 0 -.9.9v12.02a.893.893 0 0 0 .9.9h8.212a.893.893 0 0 0 .9-.9v-12.026a.893.893 0 0 0 -.9-.9z" transform="translate(-9.1 -6.3)"/><path d="m32.916 31.7h-6.516a.5.5 0 1 1 0-1h6.518a.5.5 0 0 1 0 1z" transform="translate(-17.747 -22.634)"/><path d="m32.916 44.7h-6.516a.5.5 0 1 1 0-1h6.518a.5.5 0 1 1 0 1z" transform="translate(-17.747 -33.042)"/><path d="m32.916 57.7h-6.516a.5.5 0 1 1 0-1h6.518a.5.5 0 0 1 0 1z" transform="translate(-17.747 -43.451)"/></g></svg>