<svg xmlns="http://www.w3.org/2000/svg" width="13.338" height="13.342" viewBox="0 0 13.338 13.342">
  <g id="Group_26012" data-name="Group 26012" transform="translate(19462.637 -1031.076)">
    <path id="Path_4998" data-name="Path 4998" d="M273.566,131.6a6.681,6.681,0,0,0-6.1,3.972.5.5,0,0,0-.03.064,6.666,6.666,0,0,0,4.163,9.01c.008,0,.019,0,.026.008a6.659,6.659,0,0,0,8.582-5.882.534.534,0,0,0,.008-.173c0-.109.015-.214.015-.327a6.676,6.676,0,0,0-6.667-6.671Zm-5.545,6.671a5.452,5.452,0,0,1,.387-2.016,2.156,2.156,0,0,1,1.738.2c.086.071.357.293.206.953-.616,2.752,1.111,3.259,2.144,3.563.12.034.24.071.353.109a.892.892,0,0,1,.717.95c-.049.582-.631,1.28-1.772,1.494a5.555,5.555,0,0,1-3.773-5.252Zm5.755,5.533a2.6,2.6,0,0,0,.912-1.682A2.012,2.012,0,0,0,273.2,140c-.124-.041-.255-.079-.39-.12-1.014-.3-1.75-.514-1.363-2.234a1.963,1.963,0,0,0-.589-2.068,2.751,2.751,0,0,0-1.795-.544,5.562,5.562,0,0,1,2.718-2.016,1.62,1.62,0,0,0,.86,1.156c1.141.706,1.442,1.141,1.49,1.385.041.191-.049.413-.33.822a1.822,1.822,0,0,0-.2,1.712,3.465,3.465,0,0,0,2.275,1.926,2.512,2.512,0,0,0,.608.06,8.091,8.091,0,0,0,2.429-.428,5.529,5.529,0,0,1-5.143,4.149Zm5.327-5.447a6.03,6.03,0,0,1-2.939.574,2.359,2.359,0,0,1-1.5-1.231.685.685,0,0,1,.068-.676,2.179,2.179,0,0,0,.5-1.693c-.146-.694-.762-1.344-2-2.11-.263-.161-.345-.308-.338-.364,0-.037.056-.082.116-.105a5.3,5.3,0,0,1,.552-.026,5.553,5.553,0,0,1,5.545,5.545.692.692,0,0,0-.007.086Z" transform="translate(-19729.531 899.476)" fill="#6d7278"/>
  </g>
</svg>
