<svg xmlns="http://www.w3.org/2000/svg" width="24" height="24" viewBox="0 0 24 24">
    <g>
        <g>
            <path fill="#424f62" stroke="#424f62" stroke-width="0.5px" d="M6.33 958.362a.363.363 0 0 0-.329.363v7.629a.364.364 0 0 0 0 .04v7.59a.363.363 0 0 0 .363.363h15.293a.363.363 0 0 0 .108-.028l.034-.011.028-.023a.363.363 0 0 0 .159-.3v-7.6-.028V958.723v-.034a.363.363 0 0 0-.165-.267l-.034-.023-.034-.011a.292.292 0 0 0-.131-.028H6.33zm.4.727h6.9v6.9h-6.9zm7.629 0h6.9v6.9h-6.9v-6.9zm-7.629 7.629h6.9v6.9h-6.9zm7.629 0h6.9v6.9h-6.9v-6.9z" transform="translate(19305 17844) translate(-19307 -18798.361)"/>
        </g>
    </g>
</svg>
