<svg xmlns="http://www.w3.org/2000/svg" width="15.428" height="18" viewBox="0 0 15.428 18">
    <path fill="#424f62" d="M18.214 3h-12A1.714 1.714 0 0 0 4.5 4.714v12a1.714 1.714 0 0 0 1.714 1.714h3.429L12.214 21l2.571-2.571h3.429a1.719 1.719 0 0 0 1.714-1.714v-12A1.719 1.719 0 0 0 18.214 3zm-5.143 13.714h-1.714V15h1.714zm1.774-6.643l-.771.789a2.918 2.918 0 0 0-1 2.426h-1.717v-.429a3.45 3.45 0 0 1 1-2.426l1.063-1.08a1.676 1.676 0 0 0 .506-1.209 1.714 1.714 0 1 0-3.429 0H8.786a3.429 3.429 0 1 1 6.857 0 2.727 2.727 0 0 1-.8 1.929z" transform="translate(-4.5 -3)"/>
</svg>
