<svg xmlns="http://www.w3.org/2000/svg" width="11.999" height="12.002" viewBox="0 0 11.999 12.002">
    <path fill="#9ba6b6" d="M11.25 9.358V7.894a5.591 5.591 0 0 0-1.562.672l1.026 1.026a4.067 4.067 0 0 1 .536-.235zm-5-.658l1.65 1.649a5.567 5.567 0 0 0 .8 6.918l-1.652 1.649h4.2v-4.2L9.685 16.28a4.171 4.171 0 0 1-.756-4.905l5.662 5.662a4.084 4.084 0 0 1-.536.238v1.46a5.591 5.591 0 0 0 1.562-.672l1.653 1.653.893-.893L7.143 7.807l-.89.893zm12-.987h-4.2v4.2l1.565-1.565a4.171 4.171 0 0 1 .756 4.905L17.4 16.28a5.567 5.567 0 0 0-.8-6.919l1.649-1.649z" transform="translate(-6.253 -7.712)"/>
</svg>
