<svg height="24" viewBox="0 0 24 24" width="24" xmlns="http://www.w3.org/2000/svg"><g fill="#424f62" fill-rule="evenodd"><path d="m128.606 137.809c-.343 1.323-3.822 1.421-3.577-.343.147-1.176.392-2.3.588-3.479.1-.735-.392-.49-.784-.637-.294-.147-.294-.49.049-.539a20.847 20.847 0 0 1 2.5-.049c.294 0 .441.147.441.392a1.573 1.573 0 0 1 -.049.686c-.2 1.127-.49 2.3-.588 3.381-.049.245 0 .686.343.686a3.714 3.714 0 0 0 .784-.294c.195-.098.293.049.293.196z" transform="translate(-114.731 -122.326)"/><path d="m148.176 74a1.161 1.161 0 0 1 1.176 1.176 1.132 1.132 0 0 1 -1.176 1.176 1.176 1.176 0 1 1 0-2.352z" transform="translate(-136.016 -66.455)"/><path d="m8.638 16.857a8.11 8.11 0 1 1 8.11-8.11 8.119 8.119 0 0 1 -8.11 8.11zm0-15.107a7 7 0 1 0 7 7 7 7 0 0 0 -7-7z" stroke="#424f62" stroke-linecap="round" stroke-linejoin="round" stroke-width=".6" transform="translate(3.388 3.281)"/></g></svg>