<svg height="24" viewBox="0 0 24 24" width="24" xmlns="http://www.w3.org/2000/svg"><g fill="#424f62"><path d="m212.418 52.291v-14.917a.969.969 0 0 0 -.973-.973h-11.674a.969.969 0 0 0 -.973.973v14.917a.969.969 0 0 0 .973.973h11.675a.969.969 0 0 0 .972-.973zm-1.081-.108h-11.458v-14.7h11.458z" transform="translate(-193.608 -32.832)"/><path d="m254.78 188.681h4.54a.54.54 0 1 0 0-1.081h-4.54a.54.54 0 1 0 0 1.081z" transform="translate(-246.91 -178.194)"/><path d="m252.54 255.881h7.567a.54.54 0 1 0 0-1.081h-7.567a.54.54 0 1 0 0 1.081z" transform="translate(-244.757 -242.801)"/><path d="m252.54 323.081h7.567a.54.54 0 1 0 0-1.081h-7.567a.54.54 0 1 0 0 1.081z" transform="translate(-244.757 -307.407)"/></g></svg>