<svg xmlns="http://www.w3.org/2000/svg" xmlns:xlink="http://www.w3.org/1999/xlink" width="24" height="24" viewBox="0 0 24 24">
  <defs>
    <clipPath id="clip-path">
      <path id="Path_4880" data-name="Path 4880" d="M9.691-8.906l7.5-6.478a4.759,4.759,0,0,1,.506,2.129V-5.93a4.771,4.771,0,0,1-1.5,3.48Zm-7.5,6.478A4.794,4.794,0,0,0,5.5-1.1h7.365a4.519,4.519,0,0,0,1.657-.3L8.218-7.624ZM12.844-18.039H8.264a4.043,4.043,0,0,1,.23,1.4c0,.961-.621,2.312-1.887,4.143-.875,1.259-1.749,2.289-1.8,2.335l-.6.687-.6-.687c-.046-.046-.9-1.053-1.8-2.335-.437-.641-.806-1.236-1.1-1.763A5.272,5.272,0,0,0,.6-13.209v7.325A4.868,4.868,0,0,0,.991-3.961L15.928-16.849A4.423,4.423,0,0,0,12.844-18.039ZM2.027-13.667A11.49,11.49,0,0,1,.991-15.613c-.023-.069-.046-.16-.069-.229a2.786,2.786,0,0,1-.138-.8,3.3,3.3,0,0,1,.276-1.351c.046-.114.092-.206.138-.3a1.618,1.618,0,0,1,.276-.412,3.5,3.5,0,0,1,2.785-1.4,3.429,3.429,0,0,1,2.877,1.534,3.46,3.46,0,0,1,.6,1.923,3.177,3.177,0,0,1-.322,1.259,1.067,1.067,0,0,1-.115.229,7.665,7.665,0,0,1-.46.847c-.046.092-.092.16-.138.252-.069.114-.161.252-.23.366s-.161.252-.23.366a.229.229,0,0,1-.092.114c-.046.069-.115.16-.161.229a.4.4,0,0,1-.092.114c-.092.114-.161.229-.253.343-.023.046-.046.069-.069.114-.713.984-1.335,1.694-1.335,1.694a31.037,31.037,0,0,1-1.91-2.5,2.41,2.41,0,0,1-.161-.252A.8.8,0,0,0,2.027-13.667Zm3.59-3.319a1.449,1.449,0,0,0-.391-.961l-.046-.046a.828.828,0,0,0-.276-.183c-.023,0-.046-.023-.069-.023-.046-.023-.069-.046-.115-.046a1.5,1.5,0,0,0-.46-.092,1.035,1.035,0,0,0-.46.092c-.046.023-.092.023-.115.046a1,1,0,0,0-.161.092c-.046.023-.069.046-.115.069-.023.023-.069.046-.092.092l-.138.137c-.023.023-.023.046-.046.046a.715.715,0,0,0-.115.229,1.027,1.027,0,0,0-.069.252,1.109,1.109,0,0,0-.023.275,1.467,1.467,0,0,0,.161.641.08.08,0,0,0,.023.046c.023.046.046.069.069.114l.138.137.092.092.046.046a1.42,1.42,0,0,0,.806.275,1.465,1.465,0,0,0,.967-.389l.092-.092A1.264,1.264,0,0,0,5.617-16.986Z" fill="#424f62"/>
    </clipPath>
    <clipPath id="clip-path-2">
      <path id="Path_4879" data-name="Path 4879" d="M0-1.05H18.05V-21H0Z" transform="translate(0 21)" fill="#424f62"/>
    </clipPath>
  </defs>
  <g id="Group_25731" data-name="Group 25731" transform="translate(21323 928)">
    <rect id="Rectangle_13393" data-name="Rectangle 13393" width="24" height="24" transform="translate(-21323 -928)" fill="#fff" opacity="0"/>
    <g id="Group_25722" data-name="Group 25722" transform="translate(-21320.6 -904.901)" clip-path="url(#clip-path)">
      <g id="Group_25721" data-name="Group 25721" transform="translate(0.03 -20.955)" clip-path="url(#clip-path-2)">
        <path id="Path_4878" data-name="Path 4878" d="M-4.4-25.1H22.2V3.4H-4.4Z" transform="translate(0.22 21.205)" fill="#424f62"/>
      </g>
    </g>
  </g>
</svg>
