<svg height="24" viewBox="0 0 24 24" width="24" xmlns="http://www.w3.org/2000/svg" xmlns:xlink="http://www.w3.org/1999/xlink"><clipPath id="a"><path d="m9.691-8.906 7.5-6.478a4.759 4.759 0 0 1 .506 2.129v7.325a4.771 4.771 0 0 1 -1.5 3.48zm-7.5 6.478a4.794 4.794 0 0 0 3.309 1.328h7.365a4.519 4.519 0 0 0 1.657-.3l-6.304-6.224zm10.653-15.611h-4.58a4.043 4.043 0 0 1 .23 1.4c0 .961-.621 2.312-1.887 4.143-.875 1.259-1.749 2.289-1.8 2.335l-.6.687-.6-.687c-.046-.046-.9-1.053-1.8-2.335-.437-.641-.806-1.236-1.1-1.763a5.272 5.272 0 0 0 -.107 1.05v7.325a4.868 4.868 0 0 0 .391 1.923l14.937-12.888a4.423 4.423 0 0 0 -3.084-1.19zm-10.817 4.372a11.49 11.49 0 0 1 -1.036-1.946c-.023-.069-.046-.16-.069-.229a2.786 2.786 0 0 1 -.138-.8 3.3 3.3 0 0 1 .276-1.351c.046-.114.092-.206.138-.3a1.618 1.618 0 0 1 .276-.412 3.5 3.5 0 0 1 2.785-1.4 3.429 3.429 0 0 1 2.877 1.534 3.46 3.46 0 0 1 .6 1.923 3.177 3.177 0 0 1 -.322 1.259 1.067 1.067 0 0 1 -.115.229 7.665 7.665 0 0 1 -.46.847c-.046.092-.092.16-.138.252-.069.114-.161.252-.23.366s-.161.252-.23.366a.229.229 0 0 1 -.092.114c-.046.069-.115.16-.161.229a.4.4 0 0 1 -.092.114c-.092.114-.161.229-.253.343-.023.046-.046.069-.069.114-.713.984-1.335 1.694-1.335 1.694a31.037 31.037 0 0 1 -1.91-2.5 2.41 2.41 0 0 1 -.161-.252.8.8 0 0 0 -.141-.194zm3.59-3.319a1.449 1.449 0 0 0 -.391-.961l-.046-.046a.828.828 0 0 0 -.276-.183c-.023 0-.046-.023-.069-.023-.046-.023-.069-.046-.115-.046a1.5 1.5 0 0 0 -.46-.092 1.035 1.035 0 0 0 -.46.092c-.046.023-.092.023-.115.046a1 1 0 0 0 -.161.092c-.046.023-.069.046-.115.069-.023.023-.069.046-.092.092l-.138.137c-.023.023-.023.046-.046.046a.715.715 0 0 0 -.115.229 1.027 1.027 0 0 0 -.069.252 1.109 1.109 0 0 0 -.023.275 1.467 1.467 0 0 0 .161.641.08.08 0 0 0 .023.046c.023.046.046.069.069.114l.138.137.092.092.046.046a1.42 1.42 0 0 0 .806.275 1.465 1.465 0 0 0 .967-.389l.092-.092a1.264 1.264 0 0 0 .297-.849z"/></clipPath><clipPath id="b"><path d="m0-1.05h18.05v-19.95h-18.05z" transform="translate(0 21)"/></clipPath><path d="m0 0h24v24h-24z" fill="#fff" opacity="0"/><g clip-path="url(#a)" transform="translate(2.4 23.099)"><g clip-path="url(#b)" transform="translate(.03 -20.955)"><path d="m-4.4-25.1h26.6v28.5h-26.6z" fill="#424f62" transform="translate(.22 21.205)"/></g></g></svg>