<svg height="24" viewBox="0 0 24 24" width="24" xmlns="http://www.w3.org/2000/svg"><path d="m8.285 24.014a8.789 8.789 0 0 1 8.367-8.778.25.25 0 0 0 .239-.25v-2.906a.251.251 0 0 1 .41-.193l6.777 5.6a.25.25 0 0 1 0 .386l-6.777 5.6a.25.25 0 0 1 -.41-.193v-2.714a.251.251 0 0 0 -.263-.25 8.793 8.793 0 0 0 -7.7 5.465.25.25 0 0 1 -.477-.046 8.826 8.826 0 0 1 -.169-1.722z" fill="none" stroke="#424f62" stroke-linecap="round" stroke-linejoin="round" stroke-width="1.4" transform="translate(-4.285 -6.829)"/></svg>