<svg height="26" viewBox="0 0 26 26" width="26" xmlns="http://www.w3.org/2000/svg"><path d="m22.317 22.317h-6.931a1.386 1.386 0 0 1 -1.386-1.386 1.386 1.386 0 0 1 1.386-1.386h6.931a1.386 1.386 0 0 1 1.383 1.386 1.386 1.386 0 0 1 -1.383 1.386zm5.545-6.931a1.386 1.386 0 0 0 -1.387-1.386h-11.089a1.386 1.386 0 0 0 -1.386 1.386 1.386 1.386 0 0 0 1.386 1.386h11.089a1.386 1.386 0 0 0 1.386-1.386zm-8.317 11.089a1.386 1.386 0 0 0 -1.386-1.386h-2.773a1.386 1.386 0 0 0 -1.386 1.386 1.386 1.386 0 0 0 1.386 1.386h2.772a1.386 1.386 0 0 0 1.386-1.386z" fill="#fff" transform="translate(-8 -8)"/></svg>