<svg xmlns="http://www.w3.org/2000/svg" width="13.179" height="16.504">
    <path data-name="Path 1318" d="M2136.636 202.389v-5.942a2.125 2.125 0 0 1 1.667-2.1.829.829 0 0 1 .188-.017h6.6a.391.391 0 0 1 .3.137l3.9 4.094a.569.569 0 0 1 .163.413v9.323a2.146 2.146 0 0 1-1.9 2.178 2.045 2.045 0 0 1-.268.008h-8.485a2.124 2.124 0 0 1-2.17-2.165l.005-5.929zm8.05-7.305h-5.826a1.351 1.351 0 0 0-1.438 1.445v11.711a1.353 1.353 0 0 0 1.447 1.453h8.359a1.36 1.36 0 0 0 1.447-1.442v-8.992h-.215c-.722 0-1.444.007-2.165 0a1.681 1.681 0 0 1-1.6-1.565c-.021-.8-.01-1.6-.012-2.4.003-.067.003-.129.003-.21zm.806.621a.586.586 0 0 0-.015.078c0 .574-.005 1.147 0 1.721a.917.917 0 0 0 .985.969h1.5c.044 0 .088-.007.155-.012zm-4.411 7.942a.4.4 0 1 0-.564.543l2.153 2.314c.279.3.472.3.751 0q.911-.976 1.82-1.954c.133-.143.27-.281.4-.431a.392.392 0 0 0 0-.5.384.384 0 0 0-.472-.1.709.709 0 0 0-.18.151q-.708.755-1.413 1.513c-.036.039-.077.074-.138.133v-4.274a.4.4 0 0 0-.3-.359.35.35 0 0 0-.393.164.717.717 0 0 0-.084.327c-.006 1.312 0 2.623 0 3.935v.213c-.561-.582-1.068-1.13-1.58-1.675z" transform="translate(-2136.46 -194.151)" style="fill:#fff;stroke:#fff;stroke-width:.35px"/>
</svg>
