<svg xmlns="http://www.w3.org/2000/svg" width="24" height="24" viewBox="0 0 24 24">
  <g id="Group_27008" data-name="Group 27008" transform="translate(-322 -721)">
    <rect id="Rectangle_13785" data-name="Rectangle 13785" width="24" height="24" transform="translate(322 721)" fill="#fff" opacity="0"/>
    <path id="Icon_metro-my-location" data-name="Icon metro-my-location" d="M12.515,9.366a3.149,3.149,0,1,0,3.149,3.149A3.148,3.148,0,0,0,12.515,9.366Zm7.037,2.361a7.08,7.08,0,0,0-6.25-6.25V3.856H11.727V5.478a7.08,7.08,0,0,0-6.25,6.25H3.856V13.3H5.478a7.08,7.08,0,0,0,6.25,6.25v1.622H13.3V19.552a7.08,7.08,0,0,0,6.25-6.25h1.622V11.727H19.552Zm-7.037,6.3a5.51,5.51,0,1,1,5.51-5.51A5.511,5.511,0,0,1,12.515,18.025Z" transform="translate(321.145 720.144)" fill="#424f62"/>
  </g>
</svg>
