<svg height="13" viewBox="0 0 12 13" width="12" xmlns="http://www.w3.org/2000/svg"><path d="m620.75 419a2.21 2.21 0 0 1 -2.25-2.167v-7.222a2.188 2.188 0 0 1 1.875-2.13v.686a1.843 1.843 0 0 0 1.875 1.806h4.5a1.843 1.843 0 0 0 1.875-1.806v-.686a2.187 2.187 0 0 1 1.875 2.13v7.222a2.21 2.21 0 0 1 -2.25 2.167zm1.5-10.112a.737.737 0 0 1 -.75-.722v-.722h1.5a1.5 1.5 0 0 1 3 0h1.5v.722a.737.737 0 0 1 -.75.722z" fill="#dae6f3" transform="translate(-618.5 -406)"/><path d="m168.238 38.155a1.391 1.391 0 0 0 -.508-1.052 1.89 1.89 0 0 0 -1.226-.436h-.884a1.057 1.057 0 0 0 -.437-.537 1.352 1.352 0 0 0 -.725-.207h-.694a1.541 1.541 0 0 0 -.894-.789 1.9 1.9 0 0 0 -1.282 0 1.541 1.541 0 0 0 -.894.789h-.659a1.352 1.352 0 0 0 -.725.207 1.058 1.058 0 0 0 -.437.537h-.9a1.89 1.89 0 0 0 -1.226.436 1.391 1.391 0 0 0 -.508 1.052v8.38a1.39 1.39 0 0 0 .508 1.052 1.889 1.889 0 0 0 1.226.436h8.527a1.889 1.889 0 0 0 1.226-.436 1.39 1.39 0 0 0 .508-1.052zm-8.722-1.191a.418.418 0 0 1 .152-.316.567.567 0 0 1 .368-.131h.936a.339.339 0 0 0 .347-.238.847.847 0 0 1 .513-.578 1.1 1.1 0 0 1 .847 0 .847.847 0 0 1 .513.578.339.339 0 0 0 .347.238h.936a.567.567 0 0 1 .368.131.417.417 0 0 1 .152.316v.223a.417.417 0 0 1 -.152.316.567.567 0 0 1 -.368.131h-4.439a.567.567 0 0 1 -.368-.131.417.417 0 0 1 -.152-.316zm8.028 9.57a.834.834 0 0 1 -.3.631 1.134 1.134 0 0 1 -.736.262h-8.531a1.134 1.134 0 0 1 -.736-.262.834.834 0 0 1 -.3-.631v-8.38a.834.834 0 0 1 .3-.631 1.133 1.133 0 0 1 .736-.262h.832a.991.991 0 0 0 .385.689 1.33 1.33 0 0 0 .829.278h4.439a1.33 1.33 0 0 0 .829-.278.991.991 0 0 0 .385-.689h.832a1.134 1.134 0 0 1 .736.262.834.834 0 0 1 .3.631z" fill="#424f62" transform="translate(-156.238 -35.022)"/></svg>