<svg height="24" width="24" xmlns="http://www.w3.org/2000/svg"><path d="m13.169 7.041h-4.669v-2.388a.943.943 0 0 1 .95-.933h1.132v-.8a.43.43 0 0 0 -.394-.419h-2.519l-.022-.844h2.486a1.3 1.3 0 0 1 1.337 1.266v.8h.75a.943.943 0 0 1 .95.933v2.384zm-5.522 0h-7.647v-4.561h7.646v4.56zm0-5.387h-7.647a1.67 1.67 0 0 1 1.682-1.654h4.282a1.669 1.669 0 0 1 1.68 1.563v.09z" fill="#5dc3a7" transform="translate(5.275 5)"/><path d="m15.668 7.426h-15.193a.471.471 0 0 1 -.475-.466v-.72a.471.471 0 0 1 .475-.467h.8v-4.133h7.646v4.133h.85v-4.133h4.673v4.133h1.224a.471.471 0 0 1 .475.467v.72a.471.471 0 0 1 -.475.466zm-1.225-6.613h-4.673v-.813h4.673zm-5.522 0h-7.647v-.813h7.647z" fill="#7c8fc6" transform="translate(4 12.041)"/></svg>