<svg xmlns="http://www.w3.org/2000/svg" width="26.551" height="35.884" viewBox="0 0 26.551 35.884">
  <g id="Group_26437" data-name="Group 26437" transform="translate(17392.104 162)">
    <path id="Path_5146" data-name="Path 5146" d="M206.587,274.829h1.994c.837,0,1.739.412,1.7,1.448-.033.931-.6,1.492-1.7,1.492h-1.994Zm-2.1-1.734v10.014h2.1v-3.636h2.324a3.065,3.065,0,0,0,3.212-3.137,3.161,3.161,0,0,0-3.212-3.241Z" transform="translate(-17596.594 -417.746)"/>
    <path id="Path_5147" data-name="Path 5147" d="M307.25,274.825h1.55c2.032,0,2.787,1.321,2.793,3.167,0,1.881-.838,3.409-2.61,3.409H307.25Zm-2.038-1.734v10.014h4.194c2.872,0,4.373-2.527,4.329-5.113a4.68,4.68,0,0,0-4.644-4.9Z" transform="translate(-17688.15 -417.743)"/>
    <path id="Path_5148" data-name="Path 5148" d="M417.88,273.1v10.014h2.1v-4.222h4.4v-1.767h-4.4v-2.277h5.037V273.1Z" transform="translate(-17790.566 -417.751)"/>
    <path id="Path_5149" data-name="Path 5149" d="M212.393,82.442l-7.841,9.029v6.859h1.922V92.8H215.2V86.343h-1.926V90.87h-5.65l5.65-6.5h15.9V98.331h1.925V82.442Z" transform="translate(-17596.65 -244.442)" fill-rule="evenodd"/>
    <path id="Path_5150" data-name="Path 5150" d="M204.55,365.383v7.024l26.54.026V361.986h-1.925v8.52l-22.692-.021v-5.1Z" transform="translate(-17596.648 -498.549)" fill-rule="evenodd"/>
  </g>
</svg>
