<svg xmlns="http://www.w3.org/2000/svg" width="9.801" height="9.79" viewBox="0 0 9.801 9.79">
  <g id="Group_1794" data-name="Group 1794" transform="translate(-15.758 -17.453)">
    <path id="Path_497" data-name="Path 497" d="M19.484,20.1a.719.719,0,0,0,.027-1.032c-.444-.467-.9-.926-1.368-1.369a.718.718,0,0,0-1.061-.025,4.413,4.413,0,0,0-1.268,1.475,1.958,1.958,0,0,0,0,.933,9.369,9.369,0,0,0,1.832,3.549,10.059,10.059,0,0,0,4.9,3.425c.146.044.292.084.438.125a1.568,1.568,0,0,0,.861,0,4.605,4.605,0,0,0,1.477-1.271.676.676,0,0,0,0-1.027q-.683-.734-1.425-1.411a.679.679,0,0,0-1.023.047c-.245.228-.485.463-.713.706a.331.331,0,0,1-.469.087,7.814,7.814,0,0,1-3.014-3.033.318.318,0,0,1,.074-.439C19.006,20.6,19.253,20.359,19.484,20.1Z" transform="translate(0)" fill="#424f62"/>
  </g>
</svg>
