<svg xmlns="http://www.w3.org/2000/svg" width="24" height="24" viewBox="0 0 24 24">
    <g id="logout" transform="translate(-122 -713)">
        <rect id="Rectangle_13782" width="24" height="24" transform="translate(122 713)" opacity="0"/>
        <path id="Icon_awesome-power-off" d="M14.562,1.932a8.856,8.856,0,1,1-10.293,0,.86.86,0,0,1,1.25.275l.564,1a.857.857,0,0,1-.236,1.107,6,6,0,1,0,7.139,0,.852.852,0,0,1-.232-1.1l.564-1a.856.856,0,0,1,1.243-.279Zm-3.714,7.5V.857A.855.855,0,0,0,9.991,0H8.848a.855.855,0,0,0-.857.857V9.429a.855.855,0,0,0,.857.857H9.991A.855.855,0,0,0,10.848,9.429Z" transform="translate(124.438 716)" fill="#424f62"/>
    </g>
</svg>
