<svg height="26" viewBox="0 0 26 26" width="26" xmlns="http://www.w3.org/2000/svg"><g fill="#424f62"><path d="m0 0h11v2h-11z" transform="translate(9.693 9)"/><path d="m0 0h5v2h-5z" transform="translate(15.693 13)"/><path d="m0 0h5v2h-5z" transform="translate(15.693 17)"/><path d="m38.693 22h-12.493a3.2 3.2 0 0 0 -3.2 3.2v6.975a3.2 3.2 0 0 0 3.2 3.2h3.127l-1.747 1.737 1.232 1.232 3.232-3.232a.872.872 0 0 0 0-1.232l-3.232-3.232-1.232 1.233 1.744 1.744h-3.124a1.453 1.453 0 0 1 -1.453-1.453v-6.972a1.453 1.453 0 0 1 1.453-1.456h12.5z" transform="translate(-18 -17)"/></g></svg>