<svg height="21" viewBox="0 0 21 21" width="21" xmlns="http://www.w3.org/2000/svg"><g fill="#e0f2f4" stroke="#009574" stroke-miterlimit="10" stroke-width="1.5"><rect height="21" rx="10.5" stroke="none" width="21"/><rect fill="none" height="19.5" rx="9.75" width="19.5" x=".75" y=".75"/></g><path d="m9.253.272-5.374 5.184-2.231-2.4a.945.945 0 0 0 -.918-.273.964.964 0 0 0 -.691.672.986.986 0 0 0 .225.945l2.892 3.072a.9.9 0 0 0 .66.288.871.871 0 0 0 .66-.256l6.066-5.856a.972.972 0 0 0 .031-1.348.9.9 0 0 0 -1.32-.028z" fill="#009574" transform="translate(5 6.5)"/></svg>