<svg xmlns="http://www.w3.org/2000/svg" width="24" height="24" viewBox="0 0 24 24">
  <g id="route" transform="translate(5.408 5)">
    <g id="Joyn-2-Task-Type-Setup" transform="translate(-5.408 -5)">
      <g id="Group-35">
        <g id="Group" opacity="0">
          <g id="Container">
            <rect id="view-box" width="24" height="24" fill="#424f62"/>
          </g>
        </g>
        <g id="Group-23" transform="translate(5.447 5.014)">
          <path id="Path" d="M12.561,1.052A3.045,3.045,0,0,0,10.14,0,2.379,2.379,0,0,0,8.468.614C7.257,1.725,7.273,4.063,7.273,6.533c0,1.988,0,4.239-.764,4.94a.856.856,0,0,1-.621.219,1.523,1.523,0,0,1-1.242-.512C3.9,10.3,3.881,8.506,4.056,6.972a1.884,1.884,0,0,1-.287.015,2.794,2.794,0,0,1-1.163-.248C2.4,8.463,2.4,10.713,3.483,12a3.037,3.037,0,0,0,2.389,1.038,2.367,2.367,0,0,0,1.656-.614c1.194-1.1,1.194-3.42,1.194-5.89,0-1.988,0-4.253.764-4.969a.9.9,0,0,1,.637-.219,1.5,1.5,0,0,1,1.258.526c.749.877.764,2.66.573,4.195a1.884,1.884,0,0,1,.287-.015A2.794,2.794,0,0,1,13.4,6.3c.016-.175.048-.351.064-.541C13.676,3.6,13.373,2,12.561,1.052Z" transform="translate(-0.494)" fill="#424f62"/>
          <circle id="Oval" cx="1.003" cy="1.003" r="1.003" transform="translate(11.032 7.02)" fill="#424f62"/>
          <path id="Shape" d="M2.506,2A2.006,2.006,0,1,0,4.511,4.006,2,2,0,0,0,2.506,2Zm0,3.009a1,1,0,1,1,1-1A1,1,0,0,1,2.506,5.009Z" transform="translate(-0.5 0.006)" fill="#424f62"/>
        </g>
      </g>
    </g>
  </g>
</svg>
