<svg xmlns="http://www.w3.org/2000/svg" width="24" height="24" viewBox="0 0 24 24">
  <g id="Group_25732" data-name="Group 25732" transform="translate(21246 928)">
    <rect id="Rectangle_1404" data-name="Rectangle 1404" width="24" height="24" transform="translate(-21246 -928)" fill="#fff" opacity="0"/>
    <path id="Path_4881" data-name="Path 4881" d="M92.613,32.62c-6.51,0-9.393-2.86-9.393-9.37,0-6.6,2.79-9.37,9.393-9.37s9.37,2.767,9.37,9.37S99.217,32.62,92.613,32.62ZM94.264,23.9l3.836,3.86a.242.242,0,0,1,0,.372l-.628.628a.282.282,0,0,1-.372,0L93.264,24.9a4.5,4.5,0,1,1,1-1Zm-5.836-4.836a3.091,3.091,0,1,0,4.371,0A3.087,3.087,0,0,0,88.428,19.065Z" transform="translate(-21326.221 -938.88)" fill="#424f62" fill-rule="evenodd"/>
  </g>
</svg>
