<svg height="17" viewBox="0 0 17 17" width="17" xmlns="http://www.w3.org/2000/svg"><path d="m0 0h17v17h-17z" fill="none"/><path d="m12.876 11.242a.7.7 0 0 1 1.408 0v2.411a2.815 2.815 0 0 1 -2.815 2.815h-7.638a2.815 2.815 0 0 1 -2.815-2.815v-7.637a2.815 2.815 0 0 1 2.815-2.816h3.115a.7.7 0 1 1 0 1.408h-3.115a1.408 1.408 0 0 0 -1.407 1.408v7.637a1.408 1.408 0 0 0 1.407 1.407h7.637a1.408 1.408 0 0 0 1.408-1.408zm-8.076 1.818a.7.7 0 0 1 0-1.408h2.073a.7.7 0 0 1 0 1.408zm8.018-9.936 1.726 1.5.247-.285a1.144 1.144 0 0 0 -1.726-1.5zm-.923 1.062-3.295 3.786.22 1.49 1.506.01 3.292-3.787zm3.705-2.522a2.551 2.551 0 0 1 .252 3.6l-4.675 5.378a.7.7 0 0 1 -.536.242l-2.433-.017a.7.7 0 0 1 -.691-.6l-.357-2.409a.7.7 0 0 1 .165-.565l4.675-5.378a2.551 2.551 0 0 1 3.6-.251z" fill="#424f62" transform="translate(-.301 -.198)"/></svg>