<svg xmlns="http://www.w3.org/2000/svg" id="separator" width="16.142" height="16.142" viewBox="0 0 16.142 16.142">
    <defs>
        <style>
            .cls-1{fill:#4b4b4b}
        </style>
    </defs>
    <g id="Allocation_Networks-Active-Copy-3">
        <g id="Group">
            <path id="Path" d="M7.312 4.248a1 1 0 0 0 1.062-1.062 1 1 0 0 1 1.062-1.062h3.186a1 1 0 0 0 1.062-1.062A1 1 0 0 0 12.622 0H9.436A3.129 3.129 0 0 0 6.25 3.186a1 1 0 0 0 1.062 1.062" class="cls-1" transform="translate(-3.689)"/>
            <path id="Shape" d="M15.469 10.536h-2.017v-3.7a.611.611 0 0 0 .673-.617V4.367a.611.611 0 0 0-.673-.617H8.071a.611.611 0 0 0-.673.617v1.851a.611.611 0 0 0 .673.617v3.7H6.053V6.218a.611.611 0 0 0-.672-.618H2.69a.611.611 0 0 0-.673.617v4.319H.673a.611.611 0 0 0-.673.617v4.936a.611.611 0 0 0 .673.617h14.8a.611.611 0 0 0 .673-.617v-4.936a.611.611 0 0 0-.677-.617zM3.363 6.835h1.345v3.7H3.363zm2.69 7.4h-2.69a.619.619 0 1 1 0-1.234h2.69a.619.619 0 1 1 0 1.234zm6.053-3.085v4.319h-2.69V6.835h2.69zm2.69 4.319h-1.344v-3.7H14.8z" class="cls-1" transform="translate(0 -.564)"/>
        </g>
    </g>
</svg>
