<svg height="16.142" viewBox="0 0 16.142 16.142" width="16.142" xmlns="http://www.w3.org/2000/svg"><g fill="#4b4b4b"><path d="m7.312 4.248a1 1 0 0 0 1.062-1.062 1 1 0 0 1 1.062-1.062h3.186a1 1 0 0 0 1.062-1.062 1 1 0 0 0 -1.062-1.062h-3.186a3.129 3.129 0 0 0 -3.186 3.186 1 1 0 0 0 1.062 1.062" transform="translate(-3.689)"/><path d="m15.469 10.536h-2.017v-3.7a.611.611 0 0 0 .673-.617v-1.852a.611.611 0 0 0 -.673-.617h-5.381a.611.611 0 0 0 -.673.617v1.851a.611.611 0 0 0 .673.617v3.7h-2.018v-4.317a.611.611 0 0 0 -.672-.618h-2.691a.611.611 0 0 0 -.673.617v4.319h-1.344a.611.611 0 0 0 -.673.617v4.936a.611.611 0 0 0 .673.617h14.8a.611.611 0 0 0 .673-.617v-4.936a.611.611 0 0 0 -.677-.617zm-12.106-3.701h1.345v3.7h-1.345zm2.69 7.4h-2.69a.619.619 0 1 1 0-1.234h2.69a.619.619 0 1 1 0 1.234zm6.053-3.085v4.319h-2.69v-8.634h2.69zm2.69 4.319h-1.344v-3.7h1.348z" transform="translate(0 -.564)"/></g></svg>