<svg xmlns="http://www.w3.org/2000/svg" width="24" height="24" viewBox="0 0 24 24">
  <g id="share" transform="translate(-550 -489)">
    <rect id="Rectangle_13202" width="24" height="24" transform="translate(550 489)"  opacity="0"/>
    <path id="Path_4241" d="M86.237,34.093a2.99,2.99,0,1,1-3.516,4.688,7.484,7.484,0,0,1-7.49,0,2.99,2.99,0,1,1-3.516-4.688,7.487,7.487,0,0,1,4.421-8.7,2.991,2.991,0,0,1,5.681,0,7.487,7.487,0,0,1,4.421,8.7Zm-1.471-.282a5.99,5.99,0,0,0-2.894-6.734,2.991,2.991,0,0,1-5.792,0,5.99,5.99,0,0,0-2.894,6.734,2.993,2.993,0,0,1,2.729,3.637,5.987,5.987,0,0,0,6.123,0,2.993,2.993,0,0,1,2.729-3.637Zm-5.79-5.986a1.5,1.5,0,1,0-1.5-1.495A1.5,1.5,0,0,0,78.976,27.825ZM73,38.29A1.5,1.5,0,1,0,71.5,36.8,1.5,1.5,0,0,0,73,38.29Zm11.961,0a1.5,1.5,0,1,0-1.5-1.5A1.5,1.5,0,0,0,84.956,38.29Z" transform="translate(483.023 469.437)" fill="#424f62" stroke="#424f62" stroke-width="0.5"/>
  </g>
</svg>
