<svg height="13.599" viewBox="0 0 11.457 13.599" width="11.457" xmlns="http://www.w3.org/2000/svg"><g fill="#fff" stroke-linecap="round" stroke-linejoin="round" stroke-miterlimit="10" transform="translate(.8 .8)"><path d="m4.988 13.187-.429-1.034c-.4-.964-.974-1.878-1.231-1.957-.071-.022-.318-.073-1.07-.073-.994 0-2.217.089-2.229.09l-.429.031v-10.644h10.657v10.657l-.44-.045c-.01-.001-.994-.1-1.938-.1-.538 0-.953.03-1.232.092-.663.147-1.2 1.462-1.335 1.911z"/><path d="m0 0v9.814s2.783-.204 3.446 0c.662.204 1.483 2.186 1.483 2.186s.587-1.956 1.631-2.186c1.045-.23 3.297 0 3.297 0v-9.814zm0-.8h9.857a.8.8 0 0 1 .8.8v9.814a.8.8 0 0 1 -.881.796c-.01-.001-.974-.099-1.897-.099-.634 0-.973.046-1.146.084-.332.073-.822.924-1.039 1.636a.8.8 0 0 1 -1.505.075c-.311-.75-.783-1.557-1.011-1.735-.08-.015-.322-.048-.92-.048-.979 0-2.187.088-2.2.089a.8.8 0 0 1 -.858-.798v-9.814a.8.8 0 0 1 .8-.8z" fill="#4b4b4b"/></g><text fill="#4c4c4c" font-family="Inter" font-size="8" font-weight="500" transform="translate(3.104 8.8)"><tspan x="0" y="0">S</tspan></text></svg>