<svg height="36.236" viewBox="0 0 30.65 36.236" width="30.65" xmlns="http://www.w3.org/2000/svg" xmlns:xlink="http://www.w3.org/1999/xlink"><filter id="a" filterUnits="userSpaceOnUse" height="36.236" width="30.65" x="0" y="0"><feOffset dy="2"/><feGaussianBlur result="blur" stdDeviation="2"/><feFlood flood-color="#e8e8e8"/><feComposite in2="blur" operator="in"/><feComposite in="SourceGraphic"/></filter><g filter="url(#a)"><g fill="#424f62" stroke-miterlimit="10"><path d="m8.4 21.755-.537-1.294c-.624-1.506-1.638-3.236-2.19-3.406-.159-.049-.612-.131-1.86-.131-1.686 0-3.756.15-3.776.152l-.537.04v-17.616h17.65v17.631l-.55-.057c-.017-.001-1.686-.17-3.29-.17-.922 0-1.636.054-2.12.161-1.21.267-2.132 2.508-2.386 3.349l-.405 1.341z" transform="translate(7 5)"/><path d="m0 0v16.577s2.089-.153 3.814-.153c.862 0 1.633.038 2.006.153 1.12.345 2.505 3.693 2.505 3.693s.992-3.303 2.757-3.693c.588-.13 1.403-.173 2.228-.173 1.65 0 3.34.173 3.34.173v-16.577zm-1-1h18.65v18.685l-1.102-.113c-.016-.002-1.662-.168-3.238-.168-1.103 0-1.704.081-2.013.15-.807.178-1.68 1.898-2.014 3.005l-.812 2.677-1.07-2.584c-.003-.007-.313-.751-.742-1.54-.7-1.284-1.094-1.551-1.148-1.583-.093-.025-.486-.105-1.697-.105-1.669 0-3.72.149-3.74.15l-1.074.08z" fill="#fff" transform="translate(7 5)"/></g></g><text fill="#fff" font-family="Inter-Medium, Inter" font-size="10" font-weight="500" transform="translate(10.62 6.896)"><tspan x="1.488" y="10">S</tspan></text></svg>