<svg height="36.236" viewBox="0 0 30.65 36.236" width="30.65" xmlns="http://www.w3.org/2000/svg" xmlns:xlink="http://www.w3.org/1999/xlink"><filter id="a" filterUnits="userSpaceOnUse" height="36.236" width="30.65" x="0" y="0"><feOffset dy="2"/><feGaussianBlur result="blur" stdDeviation="2"/><feFlood flood-color="#e8e8e8"/><feComposite in2="blur" operator="in"/><feComposite in="SourceGraphic"/></filter><g filter="url(#a)"><g fill="#424f62" stroke-miterlimit="10" transform="translate(7 5)"><path d="m8.39940166 21.7554245-.53624963-1.2942791c-.6236701-1.50592041-1.63832999-3.23638916-2.19006014-3.40616035-.15901995-.04893875-.61207009-.13102913-1.85953999-.13102913-1.6867001 0-3.75628999.15028-3.77699999.15180015l-.53655.03932953v-.53799057-16.57709962-.5h.5 16.65028.5v.5 16.57709962.55373955l-.55089951-.05633926c-.01667023-.00169945-1.68584061-.17050934-3.28967094-.17050934-.92181969 0-1.63521958.05428886-2.12038994.16135978-1.20888996.26679039-2.13177967 2.50767899-2.38537979 3.34861947z"/><path d="m.00000191-.00000381v16.57709884s2.08903599-.15314102 3.81355285-.15314102c.86217881 0 1.63336373.03829193 2.00658703.15314102 1.11974049.34456062 2.50500012 3.6928196 2.50500012 3.6928196s.99151992-3.30332947 2.75642013-3.6928196c.58837509-.12984466 1.40304756-.17310715 2.22814656-.17310715 1.64989566 0 3.34057331.17310715 3.34057331.17310715v-16.57709884zm-1-1h1 16.65028 1v1 16.57709884 1.10762024l-1.10186005-.11281967c-.01631928-.00167084-1.66205025-.16790962-3.2387104-.16790962-1.10314942 0-1.70337963.08135986-2.01264.14960861-.80702973.17810059-1.67918015 1.89845085-2.01451969 3.00505066l-.81141949 2.67768097-1.07003021-2.58411026c-.00294018-.00708962-.31266976-.75133133-.74246979-1.54047013-.69931698-1.28399658-1.09369087-1.55107879-1.14748573-1.58313369-.09322262-.02498627-.48582459-.10465622-1.69759465-.10465622-1.66860008 0-3.71991062.14896011-3.74043941.15045929l-1.07311058.0786705v-1.07599068-16.57709884z" fill="#fff"/></g></g><path d="m6.254 4.638a1.043 1.043 0 0 0 -.469-.783 1.81 1.81 0 0 0 -1.037-.279 1.953 1.953 0 0 0 -.774.14 1.2 1.2 0 0 0 -.506.384.907.907 0 0 0 -.179.552.8.8 0 0 0 .123.447 1.038 1.038 0 0 0 .323.314 2.239 2.239 0 0 0 .431.21 4.566 4.566 0 0 0 .444.137l.71.185a5.417 5.417 0 0 1 .714.231 2.861 2.861 0 0 1 .678.384 1.857 1.857 0 0 1 .506.589 1.72 1.72 0 0 1 .194.842 1.94 1.94 0 0 1 -.318 1.1 2.144 2.144 0 0 1 -.92.756 3.461 3.461 0 0 1 -1.454.277 3.528 3.528 0 0 1 -1.413-.259 2.171 2.171 0 0 1 -.934-.737 2.122 2.122 0 0 1 -.373-1.138h1.1a1.11 1.11 0 0 0 .257.655 1.345 1.345 0 0 0 .579.387 2.294 2.294 0 0 0 .776.126 2.194 2.194 0 0 0 .829-.147 1.366 1.366 0 0 0 .574-.411.969.969 0 0 0 .21-.62.767.767 0 0 0 -.183-.529 1.385 1.385 0 0 0 -.494-.341 4.9 4.9 0 0 0 -.7-.238l-.859-.234a3.33 3.33 0 0 1 -1.383-.7 1.569 1.569 0 0 1 -.51-1.222 1.816 1.816 0 0 1 .341-1.1 2.252 2.252 0 0 1 .923-.73 3.179 3.179 0 0 1 1.314-.261 3.105 3.105 0 0 1 1.305.259 2.2 2.2 0 0 1 .893.712 1.808 1.808 0 0 1 .341 1.039z" fill="#fff" transform="translate(10.62 6.896)"/></svg>