<svg xmlns="http://www.w3.org/2000/svg" width="16" height="16" viewBox="0 0 16 16">
  <g id="Stopicon" transform="translate(17122 1231)">
    <rect id="Rectangle_13820" data-name="Rectangle 13820" width="16" height="16" transform="translate(-17122 -1231)" fill="#2d2d2d" opacity="0"/>
    <g id="Group_25934" data-name="Group 25934" transform="translate(1538.601 -1525.2)">
      <g id="Rectangle" transform="translate(-18659 294.5)">
        <path id="Path_5351" data-name="Path 5351" d="M4.576,13.817,4.124,13.8a12.281,12.281,0,0,0-.5-1.135,2.825,2.825,0,0,0-.785-1.11H.542A1.043,1.043,0,0,1-.5,10.513V.542A1.043,1.043,0,0,1,.542-.5h9.875A1.043,1.043,0,0,1,11.459.542v9.971a1.043,1.043,0,0,1-1.042,1.042H6.7c-.689.2-1.458,1.482-1.787,2.262Z" transform="translate(0.925 0.925)" fill="#835a99"/>
        <path id="Path_5352" data-name="Path 5352" d="M.467-.15A.617.617,0,0,0-.15.467v9.971a.617.617,0,0,0,.617.617H2.85c.747.233,1.6,2.522,1.6,2.522s.949-2.259,2.126-2.522h3.768a.617.617,0,0,0,.617-.617V.467a.617.617,0,0,0-.617-.617H.467m0-.85h9.875A1.469,1.469,0,0,1,11.809.467v9.971a1.469,1.469,0,0,1-1.467,1.467H6.695a4.457,4.457,0,0,0-1.464,2,.85.85,0,0,1-1.58-.034,7.455,7.455,0,0,0-1.038-1.968H.467A1.469,1.469,0,0,1-1,10.438V.467A1.469,1.469,0,0,1,.467-1Z" transform="translate(1 1)" fill="#fff"/>
      </g>
      <g id="Group_25541" data-name="Group 25541" transform="translate(-18654.285 298.976)">
        <path id="Path_4330" data-name="Path 4330" d="M5.11-20.569v.9a3.878,3.878,0,0,0-.691-.235,2.691,2.691,0,0,0-.632-.085,1.19,1.19,0,0,0-.583.111.361.361,0,0,0-.19.34.32.32,0,0,0,.127.269A1.238,1.238,0,0,0,3.6-19.1l.472.1a1.987,1.987,0,0,1,1.012.436,1.1,1.1,0,0,1,.3.829,1.29,1.29,0,0,1-.419,1.055,2,2,0,0,1-1.281.34,4.326,4.326,0,0,1-.818-.078,4.9,4.9,0,0,1-.819-.226v-.935a4.06,4.06,0,0,0,.793.331,2.712,2.712,0,0,0,.737.108,1.06,1.06,0,0,0,.553-.118.387.387,0,0,0,.193-.347A.379.379,0,0,0,4.2-17.92a1.367,1.367,0,0,0-.521-.2l-.425-.092a1.836,1.836,0,0,1-.94-.439,1.111,1.111,0,0,1-.295-.812,1.207,1.207,0,0,1,.411-.979,1.805,1.805,0,0,1,1.186-.34,5.25,5.25,0,0,1,.724.053,6.411,6.411,0,0,1,.773.161Z" transform="translate(-2.014 20.782)" fill="#fff"/>
      </g>
    </g>
  </g>
</svg>
