<svg xmlns="http://www.w3.org/2000/svg" width="24" height="24" viewBox="0 0 24 24">
    <g>
        <g>
            <path fill="#fff" d="M5.172 291.253A2.883 2.883 0 0 0 2.358 294v.76H2.1a1.24 1.24 0 1 0 0 2.48h.261c-.01 1.145.043 2.384-.036 3.474a.173.173 0 0 1-.018.059 1.237 1.237 0 0 0 .137 2.471 2.357 2.357 0 0 0 1.666-.719A3.706 3.706 0 0 0 4.841 300v-2.765H5.1a1.24 1.24 0 0 0 0-2.48h-.259v-.76c.014-.255.137-.265.261-.265a1.238 1.238 0 1 0 .07-2.475zm1.946 6.147a1.235 1.235 0 0 0-.865 2.129l.8.8-.8.8a1.239 1.239 0 0 0 1.753 1.753l.8-.8.8.8a1.239 1.239 0 1 0 1.753-1.753l-.8-.8.8-.8a1.241 1.241 0 1 0-1.753-1.757l-.8.8-.8-.8a1.235 1.235 0 0 0-.888-.372z" transform="translate(6.999 5.999) translate(-.856 -291.253)"/>
        </g>
    </g>
</svg>
