<svg height="28" viewBox="0 0 28 28" width="28" xmlns="http://www.w3.org/2000/svg"><g fill="#fff" stroke="#009574" stroke-miterlimit="10" stroke-width="1.5"><rect height="28" rx="14" stroke="none" width="28"/><rect fill="none" height="26.5" rx="13.25" width="26.5" x=".75" y=".75"/></g><path d="m12.337.363-7.166 6.912-2.971-3.2a1.26 1.26 0 0 0 -1.227-.365 1.285 1.285 0 0 0 -.922.9 1.314 1.314 0 0 0 .3 1.261l3.855 4.1a1.2 1.2 0 0 0 .88.384 1.162 1.162 0 0 0 .88-.341l8.089-7.814a1.3 1.3 0 0 0 .045-1.794 1.2 1.2 0 0 0 -1.76-.043z" fill="#009574" transform="translate(7.001 9)"/></svg>