<svg height="46.001" viewBox="0 0 46.001 46.001" width="46.001" xmlns="http://www.w3.org/2000/svg"><circle cx="23.001" cy="23" opacity=".25" r="23"/><g fill="#fff"><g transform="translate(-50.917 -50.912)"><path d="m92.4 60.927-6.412-.211 6.2-6.2zm-39.716 12.515h-1.767a23 23 0 0 1 37.849-17.086l-1.26 1.26a21.269 21.269 0 0 0 -34.822 15.826z"/><path d="m91.164 274.055 6.412.212-6.2 6.2zm34.756 3.4a23.09 23.09 0 0 1 -31.177 1.233l1.248-1.249a21.24 21.24 0 0 0 34.893-15.639h1.767a22.788 22.788 0 0 1 -6.732 15.652z" transform="translate(-35.733 -187.237)"/></g><g stroke="#fff"><circle cx="23.001" cy="23" r="3" stroke="none"/><circle cx="23.001" cy="23" fill="none" r="2.5"/></g></g></svg>