<svg xmlns="http://www.w3.org/2000/svg" width="16.142" height="14.467" viewBox="0 0 16.142 14.467">
    <g>
        <g>
            <g>
                <path fill="#4cbde9" d="M8.921 8.68v4.133h.85V8.68h4.673v4.133h1.224a.471.471 0 0 1 .475.467V14a.471.471 0 0 1-.475.467H.475A.471.471 0 0 1 0 14v-.72a.471.471 0 0 1 .475-.467h.8V8.68zm0-6.2v5.373H1.274V2.48zm2.486-.827a1.3 1.3 0 0 1 1.337 1.266v.8h.75a.942.942 0 0 1 .95.933v3.2H9.77v-3.2a.942.942 0 0 1 .95-.933h1.132v-.8a.431.431 0 0 0-.394-.419H8.943l-.022-.844zM7.239 0a1.67 1.67 0 0 1 1.68 1.563v.091H1.274A1.668 1.668 0 0 1 2.956 0z"/>
            </g>
        </g>
    </g>
</svg>
