<svg xmlns="http://www.w3.org/2000/svg" width="8.016" height="8.015" viewBox="0 0 8.016 8.015">
  <g id="Tasknum" transform="translate(18876 -6432)">
    <path id="noun-number-2492089" d="M236.577,165.112h2.644l.361-1.444a.445.445,0,0,1,.864.216l-.307,1.228h.766a.445.445,0,0,1,0,.891h-.988l-.668,2.672H240.9a.445.445,0,0,1,0,.891h-1.879l-.361,1.444a.445.445,0,1,1-.864-.216l.307-1.228h-2.644l-.361,1.444a.445.445,0,0,1-.864-.216l.307-1.228h-.766a.445.445,0,0,1,0-.891h.988l.668-2.672H233.78a.445.445,0,1,1,0-.891h1.879l.361-1.444a.445.445,0,1,1,.864.216Zm-.223.891-.668,2.672h2.644L239,166Z" transform="translate(-19109.334 6268.669)"/>
  </g>
</svg>
