<svg xmlns="http://www.w3.org/2000/svg" width="24" height="24" viewBox="0 0 24 24">
  <g id="Group_25730" data-name="Group 25730" transform="translate(21397 928)">
    <rect id="Rectangle_13395" data-name="Rectangle 13395" width="24" height="24" transform="translate(-21397 -928)" fill="#fff" opacity="0"/>
    <path id="Union_63" data-name="Union 63" d="M621.5,425a3.087,3.087,0,0,1-3-3.167V411.278a3.116,3.116,0,0,1,2.5-3.113v1a2.575,2.575,0,0,0,2.5,2.639h6a2.575,2.575,0,0,0,2.5-2.639v-1a3.114,3.114,0,0,1,2.5,3.113v10.555a3.087,3.087,0,0,1-3,3.167Zm2-14.778a1.029,1.029,0,0,1-1-1.056v-1.056h2a2,2,0,1,1,4,0h2v1.056a1.029,1.029,0,0,1-1,1.056Z" transform="translate(-22011.5 -1332)" fill="#424f62"/>
  </g>
</svg>
