<svg xmlns="http://www.w3.org/2000/svg" width="14.139" height="17.473" viewBox="0 0 14.139 17.473">
  <path id="noun-task-4873325" d="M165.828,25a.834.834,0,0,1,.834-.834h1.307l.113-.112a2.5,2.5,0,0,1,1.757-.722h.308a2.5,2.5,0,0,1,1.792.756l.076.078h1.316a.834.834,0,0,1,.834.834,2.5,2.5,0,0,1,2.5,2.5v10a2.5,2.5,0,0,1-2.5,2.5h-8.337a2.5,2.5,0,0,1-2.5-2.5v-10a2.5,2.5,0,0,1,2.5-2.5Zm0,1.667a.834.834,0,0,0-.834.834v10a.834.834,0,0,0,.834.834h8.337A.834.834,0,0,0,175,37.5v-10a.834.834,0,0,0-.834-.834V27.5a.834.834,0,0,1-.834.834h-6.669a.834.834,0,0,1-.834-.834Zm1.667,9.17h5a.834.834,0,0,0,0-1.667h-5a.834.834,0,0,0,0,1.667Zm0-3.335h5a.834.834,0,0,0,0-1.667h-5a.834.834,0,0,0,0,1.667Zm3.513-6.98s.174.163.212.187a.666.666,0,0,0,.443.124h.834v.834h-5v-.834h.815a.728.728,0,0,0,.591-.245l.352-.348A.834.834,0,0,1,169.84,25h.308a.833.833,0,0,1,.6.252Z" transform="translate(-162.928 -22.932)" fill="#6d7278" stroke="#fff" stroke-width="0.8" fill-rule="evenodd"/>
</svg>
