<svg xmlns="http://www.w3.org/2000/svg" width="24" height="24">
    <path data-name="Path 490" d="M13.5 968.362a5.727 5.727 0 0 0-5.655 4.654 4.738 4.738 0 0 0 .9 9.392h10.128a4.12 4.12 0 0 0 .374-8.224 5.721 5.721 0 0 0-5.745-5.823zm0 1.24a4.5 4.5 0 0 1 3.208 1.323 4.547 4.547 0 0 1 1.3 3.763.62.62 0 0 0 .613.7h.245a2.892 2.892 0 1 1 0 5.784H8.751a3.513 3.513 0 0 1-.323-7.01.62.62 0 0 0 .555-.542 4.536 4.536 0 0 1 4.517-4.02zm0 3.718a.555.555 0 0 0-.42.161l-2.272 2.066a.625.625 0 0 0-.039.878.648.648 0 0 0 .878.039l1.233-1.123v3.97a.62.62 0 1 0 1.239 0v-3.97l1.233 1.123a.662.662 0 0 0 .878-.039.624.624 0 0 0-.039-.878l-2.272-2.066a.523.523 0 0 0-.419-.161z" transform="translate(-1.5 -963.861)" style="fill:#424f62;stroke:#424f62;stroke-width:.3px"/>
</svg>
