<svg height="24" viewBox="0 0 24 24" width="24" xmlns="http://www.w3.org/2000/svg"><path d="m8.071 0a8.071 8.071 0 1 1 -8.071 8.071 8.071 8.071 0 0 1 8.071-8.071zm.636 2.163-.017.5a.614.614 0 0 1 -.612.592h-.012a.614.614 0 0 1 -.615-.593l-.017-.493a5.375 5.375 0 0 0 -3.088 1.275l.34.363a.609.609 0 0 1 -.013.847.619.619 0 0 1 -.866.012l-.375-.357a5.581 5.581 0 0 0 -1.266 3.125l.485.017a.624.624 0 0 1 .6.621.614.614 0 0 1 -.593.617l-.5.016a5.461 5.461 0 0 0 .808 2.475.888.888 0 0 0 .288.318c.366.21.8-.117 1.082-.432.306-.343.73-.743 1.166-.488a.615.615 0 0 1 .238.265 2.568 2.568 0 0 1 .111 1.091 2.414 2.414 0 0 0 2.312 2.241 2.147 2.147 0 0 0 .77-.142 2.429 2.429 0 0 0 1.567-2.073 2.8 2.8 0 0 1 .1-1.022.648.648 0 0 1 .307-.334c.412-.2.709.225 1.039.465 1.455 1.055 2-2.294 2-2.294l-.477-.053a.638.638 0 0 1 .049-1.273l.451-.015a5.376 5.376 0 0 0 -1.269-3.088l-.347.326a.621.621 0 0 1 -.88-.874l.325-.351a5.372 5.372 0 0 0 -3.09-1.284zm-.546 5.549s1.7 3.067 1.7 4.018a1.7 1.7 0 1 1 -3.408 0c0-.906 1.549-3.737 1.693-4z" fill="#7d8fc7" fill-rule="evenodd" transform="translate(3.93 4)"/></svg>