<svg height="24" width="24" xmlns="http://www.w3.org/2000/svg"><path d="m8.921 8.68v4.133h.85v-4.133h4.673v4.133h1.224a.471.471 0 0 1 .475.467v.72a.471.471 0 0 1 -.475.467h-15.193a.471.471 0 0 1 -.475-.467v-.72a.471.471 0 0 1 .475-.467h.8v-4.133zm0-6.2v5.373h-7.647v-5.373zm2.486-.827a1.3 1.3 0 0 1 1.337 1.266v.8h.75a.942.942 0 0 1 .95.933v3.2h-4.674v-3.2a.942.942 0 0 1 .95-.933h1.132v-.8a.431.431 0 0 0 -.394-.419h-2.515l-.022-.844zm-4.168-1.653a1.67 1.67 0 0 1 1.68 1.563v.091h-7.645a1.668 1.668 0 0 1 1.682-1.654z" fill="#7d8fc7" transform="translate(4 4)"/></svg>