<svg height="24" viewBox="0 0 24 24" width="24" xmlns="http://www.w3.org/2000/svg"><path d="m15.141 2.927a1.47 1.47 0 0 0 1.009-1.413 1.516 1.516 0 0 0 -3.028-.1l-3.987 1.059a1.54 1.54 0 0 0 -2.523.656l-3.533.959a2.824 2.824 0 0 1 .252-1.262.467.467 0 0 0 -.2-.606l-1.768-1.059a.5.5 0 0 0 -.707.2 5.72 5.72 0 0 0 -.456 4.09 6.109 6.109 0 0 0 2.273 3.432.514.514 0 0 0 .757-.151l1.06-1.717a.479.479 0 0 0 -.1-.656 2.7 2.7 0 0 1 -.859-1.259l3.432-.908-3.079 10.444h-3.684v1.514h16.15v-1.514h-1.009zm-4.542 11-1.817-1.814 1.009-1.013zm-1.565-5.347h-1.918l.959-3.331zm.3 1.009.1.454-1.359 1.363-1.413-1.413.1-.4zm-2.975 1.511 1.009 1.009-1.816 1.821zm1.716 1.716 1.817 1.817h-3.634zm1.363-8.58a1.631 1.631 0 0 0 .151-.808l3.836-1.009a1.816 1.816 0 0 0 .707.555v11.662h-1.666z" fill="#2d2d2d" fill-rule="evenodd" transform="translate(4 4)"/></svg>